STARTFONT 2.1
COMMENT
COMMENT Converted from OpenType font "ibmplex_regular.ttf" by "otf2bdf 3.0".
COMMENT
FONT -FreeType-IBM Plex Sans Thin-Medium-R-Normal--11-80-100-100-P-49-ISO10646-1
SIZE 8 100 100
FONTBOUNDINGBOX 15 14 -2 -2
STARTPROPERTIES 19
FOUNDRY "FreeType"
FAMILY_NAME "IBM Plex Sans Thin"
WEIGHT_NAME "Medium"
SLANT "R"
SETWIDTH_NAME "Normal"
ADD_STYLE_NAME ""
PIXEL_SIZE 11
POINT_SIZE 80
RESOLUTION_X 100
RESOLUTION_Y 100
SPACING "P"
AVERAGE_WIDTH 49
CHARSET_REGISTRY "ISO10646"
CHARSET_ENCODING "1"
FONT_ASCENT 11
FONT_DESCENT 3
COPYRIGHT "Copyright 2018 IBM Corp. All rights reserved."
_OTF_FONTFILE "ibmplex_regular.ttf"
_OTF_PSNAME "IBMPlexSans-Thin"
ENDPROPERTIES
CHARS 826
STARTCHAR 0000
ENCODING 0
SWIDTH 0 0
DWIDTH 0 0
BBX 0 0 0 0
BITMAP
ENDCHAR
STARTCHAR 000D
ENCODING 13
SWIDTH 180 0
DWIDTH 2 0
BBX 0 0 0 0
BITMAP
ENDCHAR
STARTCHAR 0020
ENCODING 32
SWIDTH 180 0
DWIDTH 2 0
BBX 0 0 0 0
BITMAP
ENDCHAR
STARTCHAR 0021
ENCODING 33
SWIDTH 180 0
DWIDTH 2 0
BBX 1 8 1 0
BITMAP
80
80
80
80
80
00
00
80
ENDCHAR
STARTCHAR 0022
ENCODING 34
SWIDTH 360 0
DWIDTH 4 0
BBX 2 1 1 6
BITMAP
C0
ENDCHAR
STARTCHAR 0023
ENCODING 35
SWIDTH 630 0
DWIDTH 7 0
BBX 6 8 1 0
BITMAP
20
48
48
70
50
FC
50
10
ENDCHAR
STARTCHAR 0024
ENCODING 36
SWIDTH 540 0
DWIDTH 6 0
BBX 5 9 0 0
BITMAP
70
A0
A0
60
38
28
28
68
10
ENDCHAR
STARTCHAR 0025
ENCODING 37
SWIDTH 810 0
DWIDTH 9 0
BBX 8 8 1 0
BITMAP
C2
A4
A8
B0
5F
29
49
4F
ENDCHAR
STARTCHAR 0026
ENCODING 38
SWIDTH 630 0
DWIDTH 7 0
BBX 6 8 1 0
BITMAP
70
90
90
60
A0
98
88
F4
ENDCHAR
STARTCHAR 0027
ENCODING 39
SWIDTH 180 0
DWIDTH 2 0
BBX 1 1 1 6
BITMAP
80
ENDCHAR
STARTCHAR 0028
ENCODING 40
SWIDTH 270 0
DWIDTH 3 0
BBX 2 9 1 -2
BITMAP
40
80
80
80
80
80
80
80
40
ENDCHAR
STARTCHAR 0029
ENCODING 41
SWIDTH 270 0
DWIDTH 3 0
BBX 3 9 0 -1
BITMAP
40
40
40
20
40
40
40
80
80
ENDCHAR
STARTCHAR 002A
ENCODING 42
SWIDTH 360 0
DWIDTH 4 0
BBX 2 1 1 6
BITMAP
C0
ENDCHAR
STARTCHAR 002B
ENCODING 43
SWIDTH 540 0
DWIDTH 6 0
BBX 5 3 1 2
BITMAP
40
F8
40
ENDCHAR
STARTCHAR 002C
ENCODING 44
SWIDTH 180 0
DWIDTH 2 0
BBX 1 2 1 -2
BITMAP
80
80
ENDCHAR
STARTCHAR 002D
ENCODING 45
SWIDTH 360 0
DWIDTH 4 0
BBX 2 1 1 3
BITMAP
C0
ENDCHAR
STARTCHAR 002E
ENCODING 46
SWIDTH 180 0
DWIDTH 2 0
BBX 1 1 1 0
BITMAP
80
ENDCHAR
STARTCHAR 002F
ENCODING 47
SWIDTH 270 0
DWIDTH 3 0
BBX 3 8 0 -1
BITMAP
20
40
40
40
80
80
80
80
ENDCHAR
STARTCHAR 0030
ENCODING 48
SWIDTH 540 0
DWIDTH 6 0
BBX 5 8 1 0
BITMAP
F0
90
88
88
88
88
88
F0
ENDCHAR
STARTCHAR 0031
ENCODING 49
SWIDTH 540 0
DWIDTH 6 0
BBX 3 8 2 0
BITMAP
40
C0
40
40
40
40
40
E0
ENDCHAR
STARTCHAR 0032
ENCODING 50
SWIDTH 540 0
DWIDTH 6 0
BBX 4 8 1 0
BITMAP
F0
10
10
10
20
20
40
F0
ENDCHAR
STARTCHAR 0033
ENCODING 51
SWIDTH 540 0
DWIDTH 6 0
BBX 4 8 1 0
BITMAP
70
10
10
10
30
10
10
F0
ENDCHAR
STARTCHAR 0034
ENCODING 52
SWIDTH 540 0
DWIDTH 6 0
BBX 4 7 1 0
BITMAP
10
30
50
50
90
90
70
ENDCHAR
STARTCHAR 0035
ENCODING 53
SWIDTH 540 0
DWIDTH 6 0
BBX 5 8 1 0
BITMAP
E0
80
80
A0
50
08
08
F0
ENDCHAR
STARTCHAR 0036
ENCODING 54
SWIDTH 540 0
DWIDTH 6 0
BBX 5 7 1 1
BITMAP
40
80
E0
90
88
88
F0
ENDCHAR
STARTCHAR 0037
ENCODING 55
SWIDTH 540 0
DWIDTH 6 0
BBX 5 8 1 0
BITMAP
F8
10
10
20
20
40
40
40
ENDCHAR
STARTCHAR 0038
ENCODING 56
SWIDTH 540 0
DWIDTH 6 0
BBX 5 8 1 0
BITMAP
F0
88
88
90
F0
88
88
F0
ENDCHAR
STARTCHAR 0039
ENCODING 57
SWIDTH 540 0
DWIDTH 6 0
BBX 5 7 1 0
BITMAP
F0
88
88
88
50
30
20
ENDCHAR
STARTCHAR 003A
ENCODING 58
SWIDTH 180 0
DWIDTH 2 0
BBX 1 6 1 0
BITMAP
80
00
00
00
00
80
ENDCHAR
STARTCHAR 003B
ENCODING 59
SWIDTH 180 0
DWIDTH 2 0
BBX 1 7 1 -2
BITMAP
80
00
00
00
00
80
80
ENDCHAR
STARTCHAR 003C
ENCODING 60
SWIDTH 540 0
DWIDTH 6 0
BBX 4 6 1 0
BITMAP
10
60
80
40
20
10
ENDCHAR
STARTCHAR 003D
ENCODING 61
SWIDTH 540 0
DWIDTH 6 0
BBX 5 2 1 2
BITMAP
70
F8
ENDCHAR
STARTCHAR 003E
ENCODING 62
SWIDTH 540 0
DWIDTH 6 0
BBX 4 4 2 1
BITMAP
C0
30
60
80
ENDCHAR
STARTCHAR 003F
ENCODING 63
SWIDTH 450 0
DWIDTH 5 0
BBX 4 8 1 0
BITMAP
E0
10
10
20
80
00
00
40
ENDCHAR
STARTCHAR 0040
ENCODING 64
SWIDTH 810 0
DWIDTH 9 0
BBX 8 9 1 -1
BITMAP
3C
C2
9D
E5
C5
C5
A5
9A
7C
ENDCHAR
STARTCHAR 0041
ENCODING 65
SWIDTH 540 0
DWIDTH 6 0
BBX 6 7 0 0
BITMAP
10
30
30
48
48
78
84
ENDCHAR
STARTCHAR 0042
ENCODING 66
SWIDTH 540 0
DWIDTH 6 0
BBX 5 8 1 0
BITMAP
F0
88
88
90
E8
88
88
F8
ENDCHAR
STARTCHAR 0043
ENCODING 67
SWIDTH 540 0
DWIDTH 6 0
BBX 4 8 1 0
BITMAP
70
80
80
80
80
80
80
F0
ENDCHAR
STARTCHAR 0044
ENCODING 68
SWIDTH 630 0
DWIDTH 7 0
BBX 6 8 1 0
BITMAP
F0
88
88
84
84
88
88
F0
ENDCHAR
STARTCHAR 0045
ENCODING 69
SWIDTH 540 0
DWIDTH 6 0
BBX 3 8 1 0
BITMAP
E0
80
80
80
E0
80
80
E0
ENDCHAR
STARTCHAR 0046
ENCODING 70
SWIDTH 450 0
DWIDTH 5 0
BBX 3 7 1 0
BITMAP
E0
80
80
80
E0
80
80
ENDCHAR
STARTCHAR 0047
ENCODING 71
SWIDTH 630 0
DWIDTH 7 0
BBX 6 8 1 0
BITMAP
70
80
80
80
9C
84
84
FC
ENDCHAR
STARTCHAR 0048
ENCODING 72
SWIDTH 630 0
DWIDTH 7 0
BBX 5 6 1 1
BITMAP
88
88
88
F8
88
88
ENDCHAR
STARTCHAR 0049
ENCODING 73
SWIDTH 360 0
DWIDTH 4 0
BBX 1 6 1 1
BITMAP
80
80
80
80
80
80
ENDCHAR
STARTCHAR 004A
ENCODING 74
SWIDTH 450 0
DWIDTH 5 0
BBX 3 8 1 0
BITMAP
60
20
20
20
20
20
20
E0
ENDCHAR
STARTCHAR 004B
ENCODING 75
SWIDTH 540 0
DWIDTH 6 0
BBX 4 6 1 1
BITMAP
90
A0
C0
A0
A0
90
ENDCHAR
STARTCHAR 004C
ENCODING 76
SWIDTH 450 0
DWIDTH 5 0
BBX 3 7 1 1
BITMAP
80
80
80
80
80
80
60
ENDCHAR
STARTCHAR 004D
ENCODING 77
SWIDTH 720 0
DWIDTH 8 0
BBX 7 8 1 0
BITMAP
82
82
CE
AA
B2
82
82
02
ENDCHAR
STARTCHAR 004E
ENCODING 78
SWIDTH 630 0
DWIDTH 7 0
BBX 5 8 1 0
BITMAP
80
88
C8
A8
A8
98
98
08
ENDCHAR
STARTCHAR 004F
ENCODING 79
SWIDTH 630 0
DWIDTH 7 0
BBX 6 8 1 0
BITMAP
70
88
84
84
84
84
88
F8
ENDCHAR
STARTCHAR 0050
ENCODING 80
SWIDTH 540 0
DWIDTH 6 0
BBX 5 7 1 0
BITMAP
F0
88
88
88
F0
80
80
ENDCHAR
STARTCHAR 0051
ENCODING 81
SWIDTH 630 0
DWIDTH 7 0
BBX 6 10 1 -2
BITMAP
70
88
84
84
84
84
88
88
70
10
ENDCHAR
STARTCHAR 0052
ENCODING 82
SWIDTH 630 0
DWIDTH 7 0
BBX 5 7 1 0
BITMAP
F0
88
88
88
F0
90
90
ENDCHAR
STARTCHAR 0053
ENCODING 83
SWIDTH 540 0
DWIDTH 6 0
BBX 5 8 0 0
BITMAP
78
80
80
40
38
08
08
78
ENDCHAR
STARTCHAR 0054
ENCODING 84
SWIDTH 540 0
DWIDTH 6 0
BBX 4 7 1 0
BITMAP
F0
40
40
40
40
40
40
ENDCHAR
STARTCHAR 0055
ENCODING 85
SWIDTH 630 0
DWIDTH 7 0
BBX 5 7 1 1
BITMAP
88
88
88
88
88
88
F8
ENDCHAR
STARTCHAR 0056
ENCODING 86
SWIDTH 540 0
DWIDTH 6 0
BBX 6 8 0 0
BITMAP
80
84
88
48
48
50
30
10
ENDCHAR
STARTCHAR 0057
ENCODING 87
SWIDTH 810 0
DWIDTH 9 0
BBX 9 8 0 0
BITMAP
8000
8880
9480
9500
5500
6500
6300
2200
ENDCHAR
STARTCHAR 0058
ENCODING 88
SWIDTH 540 0
DWIDTH 6 0
BBX 5 8 1 0
BITMAP
08
90
A0
60
20
E0
90
08
ENDCHAR
STARTCHAR 0059
ENCODING 89
SWIDTH 540 0
DWIDTH 6 0
BBX 6 7 0 0
BITMAP
84
88
50
50
20
20
20
ENDCHAR
STARTCHAR 005A
ENCODING 90
SWIDTH 540 0
DWIDTH 6 0
BBX 5 8 1 0
BITMAP
78
10
20
20
40
80
80
F0
ENDCHAR
STARTCHAR 005B
ENCODING 91
SWIDTH 270 0
DWIDTH 3 0
BBX 2 10 1 -2
BITMAP
80
80
80
80
80
80
80
80
80
C0
ENDCHAR
STARTCHAR 005C
ENCODING 92
SWIDTH 270 0
DWIDTH 3 0
BBX 3 8 0 -1
BITMAP
80
80
40
40
40
40
20
20
ENDCHAR
STARTCHAR 005D
ENCODING 93
SWIDTH 270 0
DWIDTH 3 0
BBX 1 9 1 -1
BITMAP
80
80
80
80
80
80
80
80
80
ENDCHAR
STARTCHAR 005E
ENCODING 94
SWIDTH 540 0
DWIDTH 6 0
BBX 5 4 1 4
BITMAP
20
60
90
88
ENDCHAR
STARTCHAR 005F
ENCODING 95
SWIDTH 540 0
DWIDTH 6 0
BBX 6 1 0 -2
BITMAP
FC
ENDCHAR
STARTCHAR 0060
ENCODING 96
SWIDTH 540 0
DWIDTH 6 0
BBX 0 0 2 7
BITMAP
ENDCHAR
STARTCHAR 0061
ENCODING 97
SWIDTH 450 0
DWIDTH 5 0
BBX 4 6 1 0
BITMAP
E0
10
10
F0
90
F0
ENDCHAR
STARTCHAR 0062
ENCODING 98
SWIDTH 540 0
DWIDTH 6 0
BBX 5 7 1 1
BITMAP
80
E0
90
88
88
90
F0
ENDCHAR
STARTCHAR 0063
ENCODING 99
SWIDTH 450 0
DWIDTH 5 0
BBX 4 6 1 0
BITMAP
60
80
80
80
80
F0
ENDCHAR
STARTCHAR 0064
ENCODING 100
SWIDTH 540 0
DWIDTH 6 0
BBX 4 7 1 1
BITMAP
10
70
90
90
90
90
F0
ENDCHAR
STARTCHAR 0065
ENCODING 101
SWIDTH 450 0
DWIDTH 5 0
BBX 4 6 1 0
BITMAP
E0
90
90
E0
80
F0
ENDCHAR
STARTCHAR 0066
ENCODING 102
SWIDTH 270 0
DWIDTH 3 0
BBX 3 8 0 0
BITMAP
40
40
E0
40
40
40
40
40
ENDCHAR
STARTCHAR 0067
ENCODING 103
SWIDTH 450 0
DWIDTH 5 0
BBX 5 8 1 -2
BITMAP
F0
90
90
A0
C0
70
88
F0
ENDCHAR
STARTCHAR 0068
ENCODING 104
SWIDTH 540 0
DWIDTH 6 0
BBX 4 6 1 1
BITMAP
80
E0
90
90
90
90
ENDCHAR
STARTCHAR 0069
ENCODING 105
SWIDTH 180 0
DWIDTH 2 0
BBX 1 4 1 3
BITMAP
80
80
80
80
ENDCHAR
STARTCHAR 006A
ENCODING 106
SWIDTH 180 0
DWIDTH 2 0
BBX 1 6 0 1
BITMAP
80
80
80
80
80
80
ENDCHAR
STARTCHAR 006B
ENCODING 107
SWIDTH 450 0
DWIDTH 5 0
BBX 4 6 1 1
BITMAP
80
90
A0
C0
C0
A0
ENDCHAR
STARTCHAR 006C
ENCODING 108
SWIDTH 180 0
DWIDTH 2 0
BBX 1 6 1 1
BITMAP
80
80
80
80
80
80
ENDCHAR
STARTCHAR 006D
ENCODING 109
SWIDTH 810 0
DWIDTH 9 0
BBX 8 6 1 0
BITMAP
6E
91
91
91
91
01
ENDCHAR
STARTCHAR 006E
ENCODING 110
SWIDTH 540 0
DWIDTH 6 0
BBX 4 5 1 0
BITMAP
60
90
90
90
90
ENDCHAR
STARTCHAR 006F
ENCODING 111
SWIDTH 540 0
DWIDTH 6 0
BBX 4 6 1 0
BITMAP
60
90
90
90
90
F0
ENDCHAR
STARTCHAR 0070
ENCODING 112
SWIDTH 540 0
DWIDTH 6 0
BBX 5 7 1 -2
BITMAP
60
90
88
88
90
90
E0
ENDCHAR
STARTCHAR 0071
ENCODING 113
SWIDTH 540 0
DWIDTH 6 0
BBX 4 7 1 -2
BITMAP
60
90
90
90
90
90
70
ENDCHAR
STARTCHAR 0072
ENCODING 114
SWIDTH 270 0
DWIDTH 3 0
BBX 3 5 1 0
BITMAP
60
80
80
80
80
ENDCHAR
STARTCHAR 0073
ENCODING 115
SWIDTH 450 0
DWIDTH 5 0
BBX 3 6 1 0
BITMAP
E0
80
80
60
20
60
ENDCHAR
STARTCHAR 0074
ENCODING 116
SWIDTH 270 0
DWIDTH 3 0
BBX 3 7 0 0
BITMAP
40
E0
40
40
40
40
40
ENDCHAR
STARTCHAR 0075
ENCODING 117
SWIDTH 540 0
DWIDTH 6 0
BBX 4 5 1 1
BITMAP
90
90
90
90
F0
ENDCHAR
STARTCHAR 0076
ENCODING 118
SWIDTH 450 0
DWIDTH 5 0
BBX 5 6 0 0
BITMAP
88
90
90
50
60
60
ENDCHAR
STARTCHAR 0077
ENCODING 119
SWIDTH 720 0
DWIDTH 8 0
BBX 8 6 0 0
BITMAP
81
8A
BA
6A
6C
24
ENDCHAR
STARTCHAR 0078
ENCODING 120
SWIDTH 450 0
DWIDTH 5 0
BBX 4 5 1 0
BITMAP
10
A0
C0
C0
A0
ENDCHAR
STARTCHAR 0079
ENCODING 121
SWIDTH 450 0
DWIDTH 5 0
BBX 5 7 0 -2
BITMAP
88
90
90
50
60
60
40
ENDCHAR
STARTCHAR 007A
ENCODING 122
SWIDTH 360 0
DWIDTH 4 0
BBX 4 6 0 0
BITMAP
F0
10
20
40
80
E0
ENDCHAR
STARTCHAR 007B
ENCODING 123
SWIDTH 270 0
DWIDTH 3 0
BBX 3 10 0 -2
BITMAP
40
40
40
40
80
40
40
40
40
60
ENDCHAR
STARTCHAR 007C
ENCODING 124
SWIDTH 180 0
DWIDTH 2 0
BBX 1 8 1 -1
BITMAP
80
80
80
80
80
80
80
80
ENDCHAR
STARTCHAR 007D
ENCODING 125
SWIDTH 270 0
DWIDTH 3 0
BBX 2 9 1 -1
BITMAP
80
80
80
40
80
80
80
80
80
ENDCHAR
STARTCHAR 007E
ENCODING 126
SWIDTH 540 0
DWIDTH 6 0
BBX 3 1 2 3
BITMAP
E0
ENDCHAR
STARTCHAR 00A0
ENCODING 160
SWIDTH 180 0
DWIDTH 2 0
BBX 0 0 0 0
BITMAP
ENDCHAR
STARTCHAR 00A1
ENCODING 161
SWIDTH 180 0
DWIDTH 2 0
BBX 1 8 1 -2
BITMAP
80
00
00
80
80
80
80
80
ENDCHAR
STARTCHAR 00A2
ENCODING 162
SWIDTH 450 0
DWIDTH 5 0
BBX 4 7 1 0
BITMAP
60
C0
C0
C0
C0
D0
20
ENDCHAR
STARTCHAR 00A3
ENCODING 163
SWIDTH 540 0
DWIDTH 6 0
BBX 4 8 1 0
BITMAP
70
80
80
80
E0
80
80
F0
ENDCHAR
STARTCHAR 00A4
ENCODING 164
SWIDTH 540 0
DWIDTH 6 0
BBX 6 6 0 1
BITMAP
80
78
88
88
48
34
ENDCHAR
STARTCHAR 00A5
ENCODING 165
SWIDTH 540 0
DWIDTH 6 0
BBX 5 7 1 0
BITMAP
08
90
90
60
50
40
70
ENDCHAR
STARTCHAR 00A6
ENCODING 166
SWIDTH 180 0
DWIDTH 2 0
BBX 1 8 1 -1
BITMAP
80
80
00
00
00
00
80
80
ENDCHAR
STARTCHAR 00A7
ENCODING 167
SWIDTH 540 0
DWIDTH 6 0
BBX 4 10 1 -2
BITMAP
F0
80
80
E0
90
90
50
30
10
60
ENDCHAR
STARTCHAR 00A8
ENCODING 168
SWIDTH 540 0
DWIDTH 6 0
BBX 3 1 2 7
BITMAP
A0
ENDCHAR
STARTCHAR 00A9
ENCODING 169
SWIDTH 630 0
DWIDTH 7 0
BBX 7 8 0 0
BITMAP
3C
C2
B2
A2
C2
A2
92
7C
ENDCHAR
STARTCHAR 00AA
ENCODING 170
SWIDTH 270 0
DWIDTH 3 0
BBX 3 4 0 4
BITMAP
20
20
E0
E0
ENDCHAR
STARTCHAR 00AB
ENCODING 171
SWIDTH 450 0
DWIDTH 5 0
BBX 5 3 0 2
BITMAP
F0
A0
78
ENDCHAR
STARTCHAR 00AC
ENCODING 172
SWIDTH 540 0
DWIDTH 6 0
BBX 5 2 1 1
BITMAP
F8
08
ENDCHAR
STARTCHAR 00AD
ENCODING 173
SWIDTH 360 0
DWIDTH 4 0
BBX 2 1 1 3
BITMAP
C0
ENDCHAR
STARTCHAR 00AE
ENCODING 174
SWIDTH 450 0
DWIDTH 5 0
BBX 5 5 0 3
BITMAP
70
E8
A8
88
70
ENDCHAR
STARTCHAR 00AF
ENCODING 175
SWIDTH 540 0
DWIDTH 6 0
BBX 3 1 2 7
BITMAP
E0
ENDCHAR
STARTCHAR 00B0
ENCODING 176
SWIDTH 450 0
DWIDTH 5 0
BBX 3 4 1 4
BITMAP
E0
A0
A0
E0
ENDCHAR
STARTCHAR 00B1
ENCODING 177
SWIDTH 540 0
DWIDTH 6 0
BBX 3 6 2 1
BITMAP
80
80
E0
80
00
E0
ENDCHAR
STARTCHAR 00B2
ENCODING 178
SWIDTH 270 0
DWIDTH 3 0
BBX 2 4 1 4
BITMAP
C0
40
40
80
ENDCHAR
STARTCHAR 00B3
ENCODING 179
SWIDTH 270 0
DWIDTH 3 0
BBX 2 4 1 4
BITMAP
40
40
40
C0
ENDCHAR
STARTCHAR 00B4
ENCODING 180
SWIDTH 540 0
DWIDTH 6 0
BBX 0 0 3 7
BITMAP
ENDCHAR
STARTCHAR 00B5
ENCODING 181
SWIDTH 540 0
DWIDTH 6 0
BBX 4 6 1 -1
BITMAP
90
90
90
90
90
E0
ENDCHAR
STARTCHAR 00B6
ENCODING 182
SWIDTH 540 0
DWIDTH 6 0
BBX 4 10 1 -2
BITMAP
70
D0
D0
D0
50
50
50
50
50
10
ENDCHAR
STARTCHAR 00B7
ENCODING 183
SWIDTH 270 0
DWIDTH 3 0
BBX 1 1 1 3
BITMAP
80
ENDCHAR
STARTCHAR 00B8
ENCODING 184
SWIDTH 540 0
DWIDTH 6 0
BBX 0 0 3 -2
BITMAP
ENDCHAR
STARTCHAR 00B9
ENCODING 185
SWIDTH 360 0
DWIDTH 4 0
BBX 2 4 1 4
BITMAP
80
80
80
40
ENDCHAR
STARTCHAR 00BA
ENCODING 186
SWIDTH 360 0
DWIDTH 4 0
BBX 3 4 1 4
BITMAP
C0
A0
A0
C0
ENDCHAR
STARTCHAR 00BB
ENCODING 187
SWIDTH 450 0
DWIDTH 5 0
BBX 4 4 1 1
BITMAP
A0
50
A0
C0
ENDCHAR
STARTCHAR 00BC
ENCODING 188
SWIDTH 810 0
DWIDTH 9 0
BBX 7 8 1 0
BITMAP
82
84
88
08
52
26
2A
04
ENDCHAR
STARTCHAR 00BD
ENCODING 189
SWIDTH 810 0
DWIDTH 9 0
BBX 8 8 1 0
BITMAP
82
84
88
08
53
21
22
02
ENDCHAR
STARTCHAR 00BE
ENCODING 190
SWIDTH 810 0
DWIDTH 9 0
BBX 7 8 1 0
BITMAP
40
44
48
10
D6
26
4A
44
ENDCHAR
STARTCHAR 00BF
ENCODING 191
SWIDTH 450 0
DWIDTH 5 0
BBX 4 8 0 -2
BITMAP
20
00
00
20
40
80
80
F0
ENDCHAR
STARTCHAR 00C0
ENCODING 192
SWIDTH 540 0
DWIDTH 6 0
BBX 6 7 0 2
BITMAP
10
30
30
48
48
78
84
ENDCHAR
STARTCHAR 00C1
ENCODING 193
SWIDTH 540 0
DWIDTH 6 0
BBX 6 7 0 2
BITMAP
10
30
30
48
48
78
84
ENDCHAR
STARTCHAR 00C2
ENCODING 194
SWIDTH 540 0
DWIDTH 6 0
BBX 6 9 0 0
BITMAP
30
00
10
30
30
48
48
78
84
ENDCHAR
STARTCHAR 00C3
ENCODING 195
SWIDTH 540 0
DWIDTH 6 0
BBX 6 9 0 0
BITMAP
20
10
10
30
30
48
48
78
84
ENDCHAR
STARTCHAR 00C4
ENCODING 196
SWIDTH 540 0
DWIDTH 6 0
BBX 6 9 0 0
BITMAP
28
00
10
30
30
48
48
78
84
ENDCHAR
STARTCHAR 00C5
ENCODING 197
SWIDTH 540 0
DWIDTH 6 0
BBX 6 10 0 0
BITMAP
10
30
00
10
30
30
48
48
78
84
ENDCHAR
STARTCHAR 00C6
ENCODING 198
SWIDTH 810 0
DWIDTH 9 0
BBX 8 8 0 0
BITMAP
1F
18
28
28
4F
78
88
87
ENDCHAR
STARTCHAR 00C7
ENCODING 199
SWIDTH 540 0
DWIDTH 6 0
BBX 4 10 1 -2
BITMAP
70
80
80
80
80
80
80
90
60
10
ENDCHAR
STARTCHAR 00C8
ENCODING 200
SWIDTH 540 0
DWIDTH 6 0
BBX 3 8 1 2
BITMAP
E0
80
80
80
E0
80
80
E0
ENDCHAR
STARTCHAR 00C9
ENCODING 201
SWIDTH 540 0
DWIDTH 6 0
BBX 3 8 1 2
BITMAP
E0
80
80
80
E0
80
80
E0
ENDCHAR
STARTCHAR 00CA
ENCODING 202
SWIDTH 540 0
DWIDTH 6 0
BBX 3 10 1 0
BITMAP
60
00
E0
80
80
80
E0
80
80
E0
ENDCHAR
STARTCHAR 00CB
ENCODING 203
SWIDTH 540 0
DWIDTH 6 0
BBX 4 10 1 0
BITMAP
50
00
E0
80
80
80
E0
80
80
E0
ENDCHAR
STARTCHAR 00CC
ENCODING 204
SWIDTH 360 0
DWIDTH 4 0
BBX 1 6 1 3
BITMAP
80
80
80
80
80
80
ENDCHAR
STARTCHAR 00CD
ENCODING 205
SWIDTH 360 0
DWIDTH 4 0
BBX 2 9 1 0
BITMAP
40
00
00
80
80
80
80
80
80
ENDCHAR
STARTCHAR 00CE
ENCODING 206
SWIDTH 360 0
DWIDTH 4 0
BBX 2 9 1 0
BITMAP
C0
00
00
80
80
80
80
80
80
ENDCHAR
STARTCHAR 00CF
ENCODING 207
SWIDTH 360 0
DWIDTH 4 0
BBX 1 6 1 3
BITMAP
80
80
80
80
80
80
ENDCHAR
STARTCHAR 00D0
ENCODING 208
SWIDTH 630 0
DWIDTH 7 0
BBX 7 8 0 0
BITMAP
F8
84
84
82
C2
84
84
F8
ENDCHAR
STARTCHAR 00D1
ENCODING 209
SWIDTH 630 0
DWIDTH 7 0
BBX 5 10 1 0
BITMAP
60
10
80
88
C8
A8
A8
98
98
08
ENDCHAR
STARTCHAR 00D2
ENCODING 210
SWIDTH 630 0
DWIDTH 7 0
BBX 6 8 1 2
BITMAP
70
88
84
84
84
84
88
F8
ENDCHAR
STARTCHAR 00D3
ENCODING 211
SWIDTH 630 0
DWIDTH 7 0
BBX 6 8 1 2
BITMAP
70
88
84
84
84
84
88
F8
ENDCHAR
STARTCHAR 00D4
ENCODING 212
SWIDTH 630 0
DWIDTH 7 0
BBX 6 10 1 0
BITMAP
30
00
70
88
84
84
84
84
88
F8
ENDCHAR
STARTCHAR 00D5
ENCODING 213
SWIDTH 630 0
DWIDTH 7 0
BBX 6 10 1 0
BITMAP
60
10
70
88
84
84
84
84
88
F8
ENDCHAR
STARTCHAR 00D6
ENCODING 214
SWIDTH 630 0
DWIDTH 7 0
BBX 6 8 1 2
BITMAP
70
88
84
84
84
84
88
F8
ENDCHAR
STARTCHAR 00D7
ENCODING 215
SWIDTH 540 0
DWIDTH 6 0
BBX 4 4 1 2
BITMAP
90
60
60
90
ENDCHAR
STARTCHAR 00D8
ENCODING 216
SWIDTH 630 0
DWIDTH 7 0
BBX 6 8 1 0
BITMAP
70
88
94
A4
A4
C4
88
F8
ENDCHAR
STARTCHAR 00D9
ENCODING 217
SWIDTH 630 0
DWIDTH 7 0
BBX 5 7 1 3
BITMAP
88
88
88
88
88
88
F8
ENDCHAR
STARTCHAR 00DA
ENCODING 218
SWIDTH 630 0
DWIDTH 7 0
BBX 5 7 1 3
BITMAP
88
88
88
88
88
88
F8
ENDCHAR
STARTCHAR 00DB
ENCODING 219
SWIDTH 630 0
DWIDTH 7 0
BBX 5 10 1 0
BITMAP
20
00
00
88
88
88
88
88
88
F8
ENDCHAR
STARTCHAR 00DC
ENCODING 220
SWIDTH 630 0
DWIDTH 7 0
BBX 5 10 1 0
BITMAP
50
00
00
88
88
88
88
88
88
F8
ENDCHAR
STARTCHAR 00DD
ENCODING 221
SWIDTH 540 0
DWIDTH 6 0
BBX 6 9 0 0
BITMAP
10
00
84
88
50
50
20
20
20
ENDCHAR
STARTCHAR 00DE
ENCODING 222
SWIDTH 540 0
DWIDTH 6 0
BBX 5 6 1 1
BITMAP
80
F8
88
88
88
F0
ENDCHAR
STARTCHAR 00DF
ENCODING 223
SWIDTH 630 0
DWIDTH 7 0
BBX 7 8 0 0
BITMAP
78
44
C4
58
50
4C
42
4C
ENDCHAR
STARTCHAR 00E0
ENCODING 224
SWIDTH 450 0
DWIDTH 5 0
BBX 4 6 1 2
BITMAP
E0
10
10
F0
90
F0
ENDCHAR
STARTCHAR 00E1
ENCODING 225
SWIDTH 450 0
DWIDTH 5 0
BBX 4 6 1 2
BITMAP
E0
10
10
F0
90
F0
ENDCHAR
STARTCHAR 00E2
ENCODING 226
SWIDTH 450 0
DWIDTH 5 0
BBX 4 8 1 0
BITMAP
60
00
E0
10
10
F0
90
F0
ENDCHAR
STARTCHAR 00E3
ENCODING 227
SWIDTH 450 0
DWIDTH 5 0
BBX 4 8 1 0
BITMAP
C0
20
E0
10
10
F0
90
F0
ENDCHAR
STARTCHAR 00E4
ENCODING 228
SWIDTH 450 0
DWIDTH 5 0
BBX 4 6 1 2
BITMAP
E0
10
10
F0
90
F0
ENDCHAR
STARTCHAR 00E5
ENCODING 229
SWIDTH 450 0
DWIDTH 5 0
BBX 4 9 1 0
BITMAP
40
A0
40
E0
10
10
F0
90
F0
ENDCHAR
STARTCHAR 00E6
ENCODING 230
SWIDTH 810 0
DWIDTH 9 0
BBX 8 6 1 0
BITMAP
EE
31
11
FE
90
FE
ENDCHAR
STARTCHAR 00E7
ENCODING 231
SWIDTH 450 0
DWIDTH 5 0
BBX 4 8 1 -2
BITMAP
60
80
80
80
80
90
60
20
ENDCHAR
STARTCHAR 00E8
ENCODING 232
SWIDTH 450 0
DWIDTH 5 0
BBX 4 8 1 0
BITMAP
40
00
E0
90
90
E0
80
F0
ENDCHAR
STARTCHAR 00E9
ENCODING 233
SWIDTH 450 0
DWIDTH 5 0
BBX 4 8 1 0
BITMAP
20
00
E0
90
90
E0
80
F0
ENDCHAR
STARTCHAR 00EA
ENCODING 234
SWIDTH 450 0
DWIDTH 5 0
BBX 4 8 1 0
BITMAP
60
00
E0
90
90
E0
80
F0
ENDCHAR
STARTCHAR 00EB
ENCODING 235
SWIDTH 450 0
DWIDTH 5 0
BBX 4 6 1 2
BITMAP
E0
90
90
E0
80
F0
ENDCHAR
STARTCHAR 00EC
ENCODING 236
SWIDTH 180 0
DWIDTH 2 0
BBX 1 4 0 3
BITMAP
80
80
80
80
ENDCHAR
STARTCHAR 00ED
ENCODING 237
SWIDTH 180 0
DWIDTH 2 0
BBX 1 4 1 3
BITMAP
80
80
80
80
ENDCHAR
STARTCHAR 00EE
ENCODING 238
SWIDTH 180 0
DWIDTH 2 0
BBX 2 7 0 0
BITMAP
C0
00
00
80
80
80
80
ENDCHAR
STARTCHAR 00EF
ENCODING 239
SWIDTH 180 0
DWIDTH 2 0
BBX 3 7 0 0
BITMAP
A0
00
00
80
80
80
80
ENDCHAR
STARTCHAR 00F0
ENCODING 240
SWIDTH 540 0
DWIDTH 6 0
BBX 4 8 1 0
BITMAP
20
20
10
D0
90
90
90
F0
ENDCHAR
STARTCHAR 00F1
ENCODING 241
SWIDTH 540 0
DWIDTH 6 0
BBX 4 7 1 0
BITMAP
40
20
60
90
90
90
90
ENDCHAR
STARTCHAR 00F2
ENCODING 242
SWIDTH 540 0
DWIDTH 6 0
BBX 4 8 1 0
BITMAP
40
00
60
90
90
90
90
F0
ENDCHAR
STARTCHAR 00F3
ENCODING 243
SWIDTH 540 0
DWIDTH 6 0
BBX 4 8 1 0
BITMAP
20
00
60
90
90
90
90
F0
ENDCHAR
STARTCHAR 00F4
ENCODING 244
SWIDTH 540 0
DWIDTH 6 0
BBX 4 8 1 0
BITMAP
60
00
60
90
90
90
90
F0
ENDCHAR
STARTCHAR 00F5
ENCODING 245
SWIDTH 540 0
DWIDTH 6 0
BBX 4 8 1 0
BITMAP
D0
20
60
90
90
90
90
F0
ENDCHAR
STARTCHAR 00F6
ENCODING 246
SWIDTH 540 0
DWIDTH 6 0
BBX 4 6 1 2
BITMAP
60
90
90
90
90
F0
ENDCHAR
STARTCHAR 00F7
ENCODING 247
SWIDTH 540 0
DWIDTH 6 0
BBX 5 5 1 1
BITMAP
20
00
F8
00
20
ENDCHAR
STARTCHAR 00F8
ENCODING 248
SWIDTH 540 0
DWIDTH 6 0
BBX 5 6 0 0
BITMAP
30
D8
98
A8
C8
78
ENDCHAR
STARTCHAR 00F9
ENCODING 249
SWIDTH 540 0
DWIDTH 6 0
BBX 4 8 1 0
BITMAP
40
00
00
90
90
90
90
F0
ENDCHAR
STARTCHAR 00FA
ENCODING 250
SWIDTH 540 0
DWIDTH 6 0
BBX 4 8 1 0
BITMAP
20
00
00
90
90
90
90
F0
ENDCHAR
STARTCHAR 00FB
ENCODING 251
SWIDTH 540 0
DWIDTH 6 0
BBX 4 8 1 0
BITMAP
60
00
00
90
90
90
90
F0
ENDCHAR
STARTCHAR 00FC
ENCODING 252
SWIDTH 540 0
DWIDTH 6 0
BBX 4 5 1 3
BITMAP
90
90
90
90
F0
ENDCHAR
STARTCHAR 00FD
ENCODING 253
SWIDTH 450 0
DWIDTH 5 0
BBX 5 7 0 0
BITMAP
88
90
90
50
60
60
40
ENDCHAR
STARTCHAR 00FE
ENCODING 254
SWIDTH 540 0
DWIDTH 6 0
BBX 5 8 1 -1
BITMAP
80
E0
90
88
88
90
90
E0
ENDCHAR
STARTCHAR 00FF
ENCODING 255
SWIDTH 450 0
DWIDTH 5 0
BBX 5 9 0 -2
BITMAP
50
00
88
90
90
50
60
60
40
ENDCHAR
STARTCHAR 0100
ENCODING 256
SWIDTH 540 0
DWIDTH 6 0
BBX 6 9 0 0
BITMAP
38
00
10
30
30
48
48
78
84
ENDCHAR
STARTCHAR 0101
ENCODING 257
SWIDTH 450 0
DWIDTH 5 0
BBX 4 8 1 0
BITMAP
E0
00
E0
10
10
F0
90
F0
ENDCHAR
STARTCHAR 0102
ENCODING 258
SWIDTH 540 0
DWIDTH 6 0
BBX 6 9 0 0
BITMAP
08
10
10
30
30
48
48
78
84
ENDCHAR
STARTCHAR 0103
ENCODING 259
SWIDTH 450 0
DWIDTH 5 0
BBX 4 7 1 1
BITMAP
40
E0
10
10
F0
90
F0
ENDCHAR
STARTCHAR 0104
ENCODING 260
SWIDTH 540 0
DWIDTH 6 0
BBX 6 10 0 -2
BITMAP
10
30
30
48
48
78
84
04
04
04
ENDCHAR
STARTCHAR 0105
ENCODING 261
SWIDTH 450 0
DWIDTH 5 0
BBX 4 8 1 -2
BITMAP
E0
10
10
F0
90
90
70
30
ENDCHAR
STARTCHAR 0106
ENCODING 262
SWIDTH 540 0
DWIDTH 6 0
BBX 4 8 1 2
BITMAP
70
80
80
80
80
80
80
F0
ENDCHAR
STARTCHAR 0107
ENCODING 263
SWIDTH 450 0
DWIDTH 5 0
BBX 4 8 1 0
BITMAP
20
00
60
80
80
80
80
F0
ENDCHAR
STARTCHAR 0108
ENCODING 264
SWIDTH 540 0
DWIDTH 6 0
BBX 4 10 1 0
BITMAP
30
00
70
80
80
80
80
80
80
F0
ENDCHAR
STARTCHAR 0109
ENCODING 265
SWIDTH 450 0
DWIDTH 5 0
BBX 4 8 1 0
BITMAP
60
00
60
80
80
80
80
F0
ENDCHAR
STARTCHAR 010A
ENCODING 266
SWIDTH 540 0
DWIDTH 6 0
BBX 4 10 1 0
BITMAP
20
00
70
80
80
80
80
80
80
F0
ENDCHAR
STARTCHAR 010B
ENCODING 267
SWIDTH 450 0
DWIDTH 5 0
BBX 4 6 1 2
BITMAP
60
80
80
80
80
F0
ENDCHAR
STARTCHAR 010C
ENCODING 268
SWIDTH 540 0
DWIDTH 6 0
BBX 4 10 1 0
BITMAP
10
20
70
80
80
80
80
80
80
F0
ENDCHAR
STARTCHAR 010D
ENCODING 269
SWIDTH 450 0
DWIDTH 5 0
BBX 4 7 1 1
BITMAP
60
60
80
80
80
80
F0
ENDCHAR
STARTCHAR 010E
ENCODING 270
SWIDTH 630 0
DWIDTH 7 0
BBX 6 10 1 0
BITMAP
40
20
F0
88
88
84
84
88
88
F0
ENDCHAR
STARTCHAR 010F
ENCODING 271
SWIDTH 540 0
DWIDTH 6 0
BBX 4 7 1 1
BITMAP
10
70
90
90
90
90
F0
ENDCHAR
STARTCHAR 0110
ENCODING 272
SWIDTH 630 0
DWIDTH 7 0
BBX 7 8 0 0
BITMAP
F8
84
84
82
C2
84
84
F8
ENDCHAR
STARTCHAR 0111
ENCODING 273
SWIDTH 540 0
DWIDTH 6 0
BBX 4 7 1 1
BITMAP
10
70
90
90
90
90
F0
ENDCHAR
STARTCHAR 0112
ENCODING 274
SWIDTH 540 0
DWIDTH 6 0
BBX 4 10 1 0
BITMAP
70
00
E0
80
80
80
E0
80
80
E0
ENDCHAR
STARTCHAR 0113
ENCODING 275
SWIDTH 450 0
DWIDTH 5 0
BBX 4 8 1 0
BITMAP
60
00
E0
90
90
E0
80
F0
ENDCHAR
STARTCHAR 0114
ENCODING 276
SWIDTH 540 0
DWIDTH 6 0
BBX 4 10 1 0
BITMAP
10
20
E0
80
80
80
E0
80
80
E0
ENDCHAR
STARTCHAR 0115
ENCODING 277
SWIDTH 450 0
DWIDTH 5 0
BBX 4 6 1 2
BITMAP
E0
90
90
E0
80
F0
ENDCHAR
STARTCHAR 0116
ENCODING 278
SWIDTH 540 0
DWIDTH 6 0
BBX 3 10 1 0
BITMAP
20
00
E0
80
80
80
E0
80
80
E0
ENDCHAR
STARTCHAR 0117
ENCODING 279
SWIDTH 450 0
DWIDTH 5 0
BBX 4 6 1 2
BITMAP
E0
90
90
E0
80
F0
ENDCHAR
STARTCHAR 0118
ENCODING 280
SWIDTH 540 0
DWIDTH 6 0
BBX 4 10 1 -2
BITMAP
E0
80
80
80
E0
80
80
80
70
10
ENDCHAR
STARTCHAR 0119
ENCODING 281
SWIDTH 450 0
DWIDTH 5 0
BBX 4 8 1 -2
BITMAP
E0
90
90
E0
80
90
60
40
ENDCHAR
STARTCHAR 011A
ENCODING 282
SWIDTH 540 0
DWIDTH 6 0
BBX 3 10 1 0
BITMAP
40
20
E0
80
80
80
E0
80
80
E0
ENDCHAR
STARTCHAR 011B
ENCODING 283
SWIDTH 450 0
DWIDTH 5 0
BBX 4 7 1 1
BITMAP
60
E0
90
90
E0
80
F0
ENDCHAR
STARTCHAR 011C
ENCODING 284
SWIDTH 630 0
DWIDTH 7 0
BBX 6 10 1 0
BITMAP
30
00
70
80
80
80
9C
84
84
FC
ENDCHAR
STARTCHAR 011D
ENCODING 285
SWIDTH 450 0
DWIDTH 5 0
BBX 5 10 1 -2
BITMAP
60
00
F8
90
90
A0
C0
70
88
F0
ENDCHAR
STARTCHAR 011E
ENCODING 286
SWIDTH 630 0
DWIDTH 7 0
BBX 6 9 1 1
BITMAP
20
70
80
80
80
9C
84
84
FC
ENDCHAR
STARTCHAR 011F
ENCODING 287
SWIDTH 450 0
DWIDTH 5 0
BBX 5 9 1 -1
BITMAP
40
F8
90
90
A0
C0
70
88
F0
ENDCHAR
STARTCHAR 0120
ENCODING 288
SWIDTH 630 0
DWIDTH 7 0
BBX 6 8 1 2
BITMAP
70
80
80
80
9C
84
84
FC
ENDCHAR
STARTCHAR 0121
ENCODING 289
SWIDTH 450 0
DWIDTH 5 0
BBX 5 8 1 0
BITMAP
F8
90
90
A0
C0
70
88
F0
ENDCHAR
STARTCHAR 0122
ENCODING 290
SWIDTH 630 0
DWIDTH 7 0
BBX 6 9 1 -2
BITMAP
70
80
80
80
9C
84
84
8C
70
ENDCHAR
STARTCHAR 0123
ENCODING 291
SWIDTH 450 0
DWIDTH 5 0
BBX 5 8 1 0
BITMAP
F8
90
90
A0
C0
70
88
F0
ENDCHAR
STARTCHAR 0124
ENCODING 292
SWIDTH 630 0
DWIDTH 7 0
BBX 5 9 1 0
BITMAP
30
00
00
88
88
88
F8
88
88
ENDCHAR
STARTCHAR 0125
ENCODING 293
SWIDTH 540 0
DWIDTH 6 0
BBX 5 9 0 0
BITMAP
C0
00
00
80
B0
88
88
88
88
ENDCHAR
STARTCHAR 0126
ENCODING 294
SWIDTH 630 0
DWIDTH 7 0
BBX 7 8 0 0
BITMAP
02
82
FE
82
FE
82
82
02
ENDCHAR
STARTCHAR 0127
ENCODING 295
SWIDTH 540 0
DWIDTH 6 0
BBX 5 6 0 1
BITMAP
C0
B0
48
88
88
88
ENDCHAR
STARTCHAR 0128
ENCODING 296
SWIDTH 360 0
DWIDTH 4 0
BBX 2 9 1 0
BITMAP
80
40
00
80
80
80
80
80
80
ENDCHAR
STARTCHAR 0129
ENCODING 297
SWIDTH 180 0
DWIDTH 2 0
BBX 2 7 0 0
BITMAP
80
40
00
80
80
80
80
ENDCHAR
STARTCHAR 012A
ENCODING 298
SWIDTH 360 0
DWIDTH 4 0
BBX 3 9 1 0
BITMAP
E0
00
00
80
80
80
80
80
80
ENDCHAR
STARTCHAR 012B
ENCODING 299
SWIDTH 180 0
DWIDTH 2 0
BBX 3 7 0 0
BITMAP
E0
00
00
80
80
80
80
ENDCHAR
STARTCHAR 012C
ENCODING 300
SWIDTH 360 0
DWIDTH 4 0
BBX 2 8 1 1
BITMAP
40
00
80
80
80
80
80
80
ENDCHAR
STARTCHAR 012D
ENCODING 301
SWIDTH 180 0
DWIDTH 2 0
BBX 2 6 0 1
BITMAP
40
00
80
80
80
80
ENDCHAR
STARTCHAR 012E
ENCODING 302
SWIDTH 360 0
DWIDTH 4 0
BBX 2 9 1 -1
BITMAP
80
80
80
80
80
80
80
40
40
ENDCHAR
STARTCHAR 012F
ENCODING 303
SWIDTH 180 0
DWIDTH 2 0
BBX 1 7 0 1
BITMAP
80
80
80
80
80
80
80
ENDCHAR
STARTCHAR 0130
ENCODING 304
SWIDTH 360 0
DWIDTH 4 0
BBX 1 6 1 3
BITMAP
80
80
80
80
80
80
ENDCHAR
STARTCHAR 0131
ENCODING 305
SWIDTH 180 0
DWIDTH 2 0
BBX 1 4 1 1
BITMAP
80
80
80
80
ENDCHAR
STARTCHAR 0132
ENCODING 306
SWIDTH 630 0
DWIDTH 7 0
BBX 5 8 1 0
BITMAP
18
88
88
88
08
08
08
F0
ENDCHAR
STARTCHAR 0133
ENCODING 307
SWIDTH 450 0
DWIDTH 5 0
BBX 3 6 1 1
BITMAP
A0
A0
A0
A0
20
20
ENDCHAR
STARTCHAR 0134
ENCODING 308
SWIDTH 450 0
DWIDTH 5 0
BBX 3 10 1 0
BITMAP
40
00
60
20
20
20
20
20
20
E0
ENDCHAR
STARTCHAR 0135
ENCODING 309
SWIDTH 180 0
DWIDTH 2 0
BBX 2 10 0 -2
BITMAP
C0
00
00
80
80
80
80
80
80
80
ENDCHAR
STARTCHAR 0136
ENCODING 310
SWIDTH 540 0
DWIDTH 6 0
BBX 4 9 1 -1
BITMAP
90
A0
C0
A0
A0
90
00
00
20
ENDCHAR
STARTCHAR 0137
ENCODING 311
SWIDTH 450 0
DWIDTH 5 0
BBX 4 6 1 -1
BITMAP
80
90
A0
C0
C0
A0
ENDCHAR
STARTCHAR 0138
ENCODING 312
SWIDTH 450 0
DWIDTH 5 0
BBX 3 4 1 1
BITMAP
A0
C0
C0
A0
ENDCHAR
STARTCHAR 0139
ENCODING 313
SWIDTH 450 0
DWIDTH 5 0
BBX 3 7 1 3
BITMAP
80
80
80
80
80
80
60
ENDCHAR
STARTCHAR 013A
ENCODING 314
SWIDTH 180 0
DWIDTH 2 0
BBX 1 9 1 1
BITMAP
80
00
00
80
80
80
80
80
80
ENDCHAR
STARTCHAR 013B
ENCODING 315
SWIDTH 450 0
DWIDTH 5 0
BBX 3 8 1 -1
BITMAP
80
80
80
80
80
80
00
60
ENDCHAR
STARTCHAR 013C
ENCODING 316
SWIDTH 180 0
DWIDTH 2 0
BBX 1 6 1 -1
BITMAP
80
80
80
80
80
80
ENDCHAR
STARTCHAR 013D
ENCODING 317
SWIDTH 450 0
DWIDTH 5 0
BBX 3 7 1 1
BITMAP
80
80
80
80
80
80
60
ENDCHAR
STARTCHAR 013E
ENCODING 318
SWIDTH 180 0
DWIDTH 2 0
BBX 2 6 1 1
BITMAP
C0
80
80
80
80
80
ENDCHAR
STARTCHAR 013F
ENCODING 319
SWIDTH 450 0
DWIDTH 5 0
BBX 3 7 1 1
BITMAP
80
80
80
80
80
80
60
ENDCHAR
STARTCHAR 0140
ENCODING 320
SWIDTH 270 0
DWIDTH 3 0
BBX 1 6 1 1
BITMAP
80
80
80
80
80
80
ENDCHAR
STARTCHAR 0141
ENCODING 321
SWIDTH 450 0
DWIDTH 5 0
BBX 4 7 0 1
BITMAP
80
80
80
60
80
80
70
ENDCHAR
STARTCHAR 0142
ENCODING 322
SWIDTH 180 0
DWIDTH 2 0
BBX 1 6 0 1
BITMAP
80
80
80
80
80
80
ENDCHAR
STARTCHAR 0143
ENCODING 323
SWIDTH 630 0
DWIDTH 7 0
BBX 5 8 1 2
BITMAP
80
88
C8
A8
A8
98
98
08
ENDCHAR
STARTCHAR 0144
ENCODING 324
SWIDTH 540 0
DWIDTH 6 0
BBX 4 7 1 0
BITMAP
20
00
60
90
90
90
90
ENDCHAR
STARTCHAR 0145
ENCODING 325
SWIDTH 630 0
DWIDTH 7 0
BBX 5 8 1 -2
BITMAP
80
88
C8
A8
A8
98
98
08
ENDCHAR
STARTCHAR 0146
ENCODING 326
SWIDTH 540 0
DWIDTH 6 0
BBX 4 5 1 -2
BITMAP
60
90
90
90
90
ENDCHAR
STARTCHAR 0147
ENCODING 327
SWIDTH 630 0
DWIDTH 7 0
BBX 5 10 1 0
BITMAP
10
20
80
88
C8
A8
A8
98
98
08
ENDCHAR
STARTCHAR 0148
ENCODING 328
SWIDTH 540 0
DWIDTH 6 0
BBX 4 7 1 0
BITMAP
40
20
60
90
90
90
90
ENDCHAR
STARTCHAR 0149
ENCODING 329
SWIDTH 720 0
DWIDTH 8 0
BBX 6 8 1 0
BITMAP
80
00
3C
24
24
24
24
20
ENDCHAR
STARTCHAR 014A
ENCODING 330
SWIDTH 630 0
DWIDTH 7 0
BBX 5 9 1 -2
BITMAP
80
88
C8
A8
A8
98
98
08
08
ENDCHAR
STARTCHAR 014B
ENCODING 331
SWIDTH 540 0
DWIDTH 6 0
BBX 4 8 1 -2
BITMAP
60
90
90
90
90
10
10
10
ENDCHAR
STARTCHAR 014C
ENCODING 332
SWIDTH 630 0
DWIDTH 7 0
BBX 6 10 1 0
BITMAP
70
00
70
88
84
84
84
84
88
F8
ENDCHAR
STARTCHAR 014D
ENCODING 333
SWIDTH 540 0
DWIDTH 6 0
BBX 4 8 1 0
BITMAP
60
00
60
90
90
90
90
F0
ENDCHAR
STARTCHAR 014E
ENCODING 334
SWIDTH 630 0
DWIDTH 7 0
BBX 6 9 1 1
BITMAP
20
70
88
84
84
84
84
88
F8
ENDCHAR
STARTCHAR 014F
ENCODING 335
SWIDTH 540 0
DWIDTH 6 0
BBX 4 6 1 2
BITMAP
60
90
90
90
90
F0
ENDCHAR
STARTCHAR 0150
ENCODING 336
SWIDTH 630 0
DWIDTH 7 0
BBX 6 10 1 0
BITMAP
20
00
70
88
84
84
84
84
88
F8
ENDCHAR
STARTCHAR 0151
ENCODING 337
SWIDTH 540 0
DWIDTH 6 0
BBX 4 8 1 0
BITMAP
10
00
60
90
90
90
90
F0
ENDCHAR
STARTCHAR 0152
ENCODING 338
SWIDTH 900 0
DWIDTH 10 0
BBX 8 8 1 0
BITMAP
7F
88
88
88
8F
88
88
FF
ENDCHAR
STARTCHAR 0153
ENCODING 339
SWIDTH 900 0
DWIDTH 10 0
BBX 9 6 1 0
BITMAP
6600
9900
9080
9F00
9000
FF00
ENDCHAR
STARTCHAR 0154
ENCODING 340
SWIDTH 630 0
DWIDTH 7 0
BBX 5 7 1 2
BITMAP
F0
88
88
88
F0
90
90
ENDCHAR
STARTCHAR 0155
ENCODING 341
SWIDTH 270 0
DWIDTH 3 0
BBX 3 5 1 2
BITMAP
60
80
80
80
80
ENDCHAR
STARTCHAR 0156
ENCODING 342
SWIDTH 630 0
DWIDTH 7 0
BBX 5 10 1 -2
BITMAP
F0
88
88
88
F0
90
90
00
00
20
ENDCHAR
STARTCHAR 0157
ENCODING 343
SWIDTH 270 0
DWIDTH 3 0
BBX 3 5 1 -2
BITMAP
60
80
80
80
80
ENDCHAR
STARTCHAR 0158
ENCODING 344
SWIDTH 630 0
DWIDTH 7 0
BBX 5 9 1 0
BITMAP
40
20
F0
88
88
88
F0
90
90
ENDCHAR
STARTCHAR 0159
ENCODING 345
SWIDTH 270 0
DWIDTH 3 0
BBX 3 6 1 1
BITMAP
40
60
80
80
80
80
ENDCHAR
STARTCHAR 015A
ENCODING 346
SWIDTH 540 0
DWIDTH 6 0
BBX 5 10 0 0
BITMAP
10
00
78
80
80
40
38
08
08
78
ENDCHAR
STARTCHAR 015B
ENCODING 347
SWIDTH 450 0
DWIDTH 5 0
BBX 3 6 1 2
BITMAP
E0
80
80
60
20
60
ENDCHAR
STARTCHAR 015C
ENCODING 348
SWIDTH 540 0
DWIDTH 6 0
BBX 5 10 0 0
BITMAP
30
00
78
80
80
40
38
08
08
78
ENDCHAR
STARTCHAR 015D
ENCODING 349
SWIDTH 450 0
DWIDTH 5 0
BBX 3 8 1 0
BITMAP
40
00
E0
80
80
60
20
60
ENDCHAR
STARTCHAR 015E
ENCODING 350
SWIDTH 540 0
DWIDTH 6 0
BBX 5 10 0 -2
BITMAP
78
80
80
40
38
08
08
08
70
10
ENDCHAR
STARTCHAR 015F
ENCODING 351
SWIDTH 450 0
DWIDTH 5 0
BBX 3 8 1 -2
BITMAP
E0
80
80
60
20
20
40
20
ENDCHAR
STARTCHAR 0160
ENCODING 352
SWIDTH 540 0
DWIDTH 6 0
BBX 5 9 0 1
BITMAP
30
78
80
80
40
38
08
08
78
ENDCHAR
STARTCHAR 0161
ENCODING 353
SWIDTH 450 0
DWIDTH 5 0
BBX 3 7 1 1
BITMAP
40
E0
80
80
60
20
60
ENDCHAR
STARTCHAR 0162
ENCODING 354
SWIDTH 540 0
DWIDTH 6 0
BBX 4 7 1 -2
BITMAP
F0
40
40
40
40
40
40
ENDCHAR
STARTCHAR 0163
ENCODING 355
SWIDTH 270 0
DWIDTH 3 0
BBX 3 7 0 -2
BITMAP
40
E0
40
40
40
40
40
ENDCHAR
STARTCHAR 0164
ENCODING 356
SWIDTH 540 0
DWIDTH 6 0
BBX 4 9 1 0
BITMAP
40
20
F0
40
40
40
40
40
40
ENDCHAR
STARTCHAR 0165
ENCODING 357
SWIDTH 270 0
DWIDTH 3 0
BBX 3 7 0 1
BITMAP
40
E0
40
40
40
40
40
ENDCHAR
STARTCHAR 0166
ENCODING 358
SWIDTH 540 0
DWIDTH 6 0
BBX 4 7 1 0
BITMAP
F0
40
40
40
60
40
40
ENDCHAR
STARTCHAR 0167
ENCODING 359
SWIDTH 270 0
DWIDTH 3 0
BBX 3 7 0 0
BITMAP
40
E0
40
40
40
40
40
ENDCHAR
STARTCHAR 0168
ENCODING 360
SWIDTH 630 0
DWIDTH 7 0
BBX 5 10 1 0
BITMAP
20
00
00
88
88
88
88
88
88
F8
ENDCHAR
STARTCHAR 0169
ENCODING 361
SWIDTH 540 0
DWIDTH 6 0
BBX 4 8 1 0
BITMAP
40
20
00
90
90
90
90
F0
ENDCHAR
STARTCHAR 016A
ENCODING 362
SWIDTH 630 0
DWIDTH 7 0
BBX 5 10 1 0
BITMAP
70
00
00
88
88
88
88
88
88
F8
ENDCHAR
STARTCHAR 016B
ENCODING 363
SWIDTH 540 0
DWIDTH 6 0
BBX 4 8 1 0
BITMAP
60
00
00
90
90
90
90
F0
ENDCHAR
STARTCHAR 016C
ENCODING 364
SWIDTH 630 0
DWIDTH 7 0
BBX 5 10 1 0
BITMAP
40
20
00
88
88
88
88
88
88
F8
ENDCHAR
STARTCHAR 016D
ENCODING 365
SWIDTH 540 0
DWIDTH 6 0
BBX 4 7 1 1
BITMAP
20
00
90
90
90
90
F0
ENDCHAR
STARTCHAR 016E
ENCODING 366
SWIDTH 630 0
DWIDTH 7 0
BBX 5 11 1 0
BITMAP
20
50
20
00
88
88
88
88
88
88
F8
ENDCHAR
STARTCHAR 016F
ENCODING 367
SWIDTH 540 0
DWIDTH 6 0
BBX 4 8 1 1
BITMAP
E0
40
00
90
90
90
90
F0
ENDCHAR
STARTCHAR 0170
ENCODING 368
SWIDTH 630 0
DWIDTH 7 0
BBX 5 7 1 3
BITMAP
88
88
88
88
88
88
F8
ENDCHAR
STARTCHAR 0171
ENCODING 369
SWIDTH 540 0
DWIDTH 6 0
BBX 4 8 1 0
BITMAP
10
00
00
90
90
90
90
F0
ENDCHAR
STARTCHAR 0172
ENCODING 370
SWIDTH 630 0
DWIDTH 7 0
BBX 5 9 1 -1
BITMAP
88
88
88
88
88
88
88
70
20
ENDCHAR
STARTCHAR 0173
ENCODING 371
SWIDTH 540 0
DWIDTH 6 0
BBX 4 6 1 -1
BITMAP
90
90
90
90
90
60
ENDCHAR
STARTCHAR 0174
ENCODING 372
SWIDTH 810 0
DWIDTH 9 0
BBX 9 10 0 0
BITMAP
0C00
0000
8000
8880
9480
9500
5500
6500
6300
2200
ENDCHAR
STARTCHAR 0175
ENCODING 373
SWIDTH 720 0
DWIDTH 8 0
BBX 8 8 0 0
BITMAP
18
00
81
8A
BA
6A
6C
24
ENDCHAR
STARTCHAR 0176
ENCODING 374
SWIDTH 540 0
DWIDTH 6 0
BBX 6 9 0 0
BITMAP
30
00
84
88
50
50
20
20
20
ENDCHAR
STARTCHAR 0177
ENCODING 375
SWIDTH 450 0
DWIDTH 5 0
BBX 5 9 0 -2
BITMAP
20
00
88
90
90
50
60
60
40
ENDCHAR
STARTCHAR 0178
ENCODING 376
SWIDTH 540 0
DWIDTH 6 0
BBX 6 7 0 2
BITMAP
84
88
50
50
20
20
20
ENDCHAR
STARTCHAR 0179
ENCODING 377
SWIDTH 540 0
DWIDTH 6 0
BBX 5 10 1 0
BITMAP
20
00
78
10
20
20
40
80
80
F0
ENDCHAR
STARTCHAR 017A
ENCODING 378
SWIDTH 360 0
DWIDTH 4 0
BBX 4 6 0 2
BITMAP
F0
10
20
40
80
E0
ENDCHAR
STARTCHAR 017B
ENCODING 379
SWIDTH 540 0
DWIDTH 6 0
BBX 5 8 1 2
BITMAP
78
10
20
20
40
80
80
F0
ENDCHAR
STARTCHAR 017C
ENCODING 380
SWIDTH 360 0
DWIDTH 4 0
BBX 4 8 0 0
BITMAP
20
00
F0
10
20
40
80
E0
ENDCHAR
STARTCHAR 017D
ENCODING 381
SWIDTH 540 0
DWIDTH 6 0
BBX 5 10 1 0
BITMAP
40
20
78
10
20
20
40
80
80
F0
ENDCHAR
STARTCHAR 017E
ENCODING 382
SWIDTH 360 0
DWIDTH 4 0
BBX 4 8 0 0
BITMAP
40
20
F0
10
20
40
80
E0
ENDCHAR
STARTCHAR 018F
ENCODING 399
SWIDTH 630 0
DWIDTH 7 0
BBX 6 8 1 0
BITMAP
70
88
04
04
FC
84
88
F8
ENDCHAR
STARTCHAR 0192
ENCODING 402
SWIDTH 450 0
DWIDTH 5 0
BBX 5 9 0 -1
BITMAP
10
20
20
20
78
20
40
40
C0
ENDCHAR
STARTCHAR 01A0
ENCODING 416
SWIDTH 630 0
DWIDTH 7 0
BBX 6 8 1 1
BITMAP
78
88
84
84
84
84
88
F8
ENDCHAR
STARTCHAR 01A1
ENCODING 417
SWIDTH 540 0
DWIDTH 6 0
BBX 4 6 1 1
BITMAP
70
90
90
90
90
F0
ENDCHAR
STARTCHAR 01AF
ENCODING 431
SWIDTH 630 0
DWIDTH 7 0
BBX 5 8 1 1
BITMAP
08
88
88
88
88
88
88
F8
ENDCHAR
STARTCHAR 01B0
ENCODING 432
SWIDTH 540 0
DWIDTH 6 0
BBX 5 6 1 1
BITMAP
08
90
90
90
90
F0
ENDCHAR
STARTCHAR 01FA
ENCODING 506
SWIDTH 540 0
DWIDTH 6 0
BBX 6 10 0 1
BITMAP
10
30
00
10
30
30
48
48
78
84
ENDCHAR
STARTCHAR 01FB
ENCODING 507
SWIDTH 450 0
DWIDTH 5 0
BBX 4 9 1 1
BITMAP
40
A0
40
E0
10
10
F0
90
F0
ENDCHAR
STARTCHAR 01FC
ENCODING 508
SWIDTH 810 0
DWIDTH 9 0
BBX 8 8 0 2
BITMAP
1F
18
28
28
4F
78
88
87
ENDCHAR
STARTCHAR 01FD
ENCODING 509
SWIDTH 810 0
DWIDTH 9 0
BBX 8 6 1 2
BITMAP
EE
31
11
FE
90
FE
ENDCHAR
STARTCHAR 01FE
ENCODING 510
SWIDTH 630 0
DWIDTH 7 0
BBX 6 8 1 2
BITMAP
70
88
94
A4
A4
C4
88
F8
ENDCHAR
STARTCHAR 01FF
ENCODING 511
SWIDTH 540 0
DWIDTH 6 0
BBX 5 8 0 0
BITMAP
10
00
30
D8
98
A8
C8
78
ENDCHAR
STARTCHAR 0218
ENCODING 536
SWIDTH 540 0
DWIDTH 6 0
BBX 5 9 0 -2
BITMAP
78
80
80
40
38
08
08
08
70
ENDCHAR
STARTCHAR 0219
ENCODING 537
SWIDTH 450 0
DWIDTH 5 0
BBX 3 7 1 -2
BITMAP
E0
80
80
60
20
20
40
ENDCHAR
STARTCHAR 021A
ENCODING 538
SWIDTH 540 0
DWIDTH 6 0
BBX 4 7 1 -2
BITMAP
F0
40
40
40
40
40
40
ENDCHAR
STARTCHAR 021B
ENCODING 539
SWIDTH 270 0
DWIDTH 3 0
BBX 3 7 0 -2
BITMAP
40
E0
40
40
40
40
40
ENDCHAR
STARTCHAR 0237
ENCODING 567
SWIDTH 180 0
DWIDTH 2 0
BBX 1 7 0 -1
BITMAP
80
80
80
80
80
80
80
ENDCHAR
STARTCHAR 0259
ENCODING 601
SWIDTH 450 0
DWIDTH 5 0
BBX 4 6 1 0
BITMAP
E0
10
10
F0
90
F0
ENDCHAR
STARTCHAR 02BB
ENCODING 699
SWIDTH 540 0
DWIDTH 6 0
BBX 0 0 3 7
BITMAP
ENDCHAR
STARTCHAR 02BC
ENCODING 700
SWIDTH 540 0
DWIDTH 6 0
BBX 0 0 2 6
BITMAP
ENDCHAR
STARTCHAR 02C6
ENCODING 710
SWIDTH 540 0
DWIDTH 6 0
BBX 2 1 2 7
BITMAP
C0
ENDCHAR
STARTCHAR 02C7
ENCODING 711
SWIDTH 540 0
DWIDTH 6 0
BBX 2 1 2 7
BITMAP
C0
ENDCHAR
STARTCHAR 02D8
ENCODING 728
SWIDTH 540 0
DWIDTH 6 0
BBX 2 1 3 7
BITMAP
C0
ENDCHAR
STARTCHAR 02D9
ENCODING 729
SWIDTH 540 0
DWIDTH 6 0
BBX 1 1 3 7
BITMAP
80
ENDCHAR
STARTCHAR 02DA
ENCODING 730
SWIDTH 540 0
DWIDTH 6 0
BBX 2 2 2 7
BITMAP
40
C0
ENDCHAR
STARTCHAR 02DB
ENCODING 731
SWIDTH 540 0
DWIDTH 6 0
BBX 1 2 2 -2
BITMAP
80
80
ENDCHAR
STARTCHAR 02DC
ENCODING 732
SWIDTH 540 0
DWIDTH 6 0
BBX 2 1 2 7
BITMAP
C0
ENDCHAR
STARTCHAR 02DD
ENCODING 733
SWIDTH 540 0
DWIDTH 6 0
BBX 0 0 2 7
BITMAP
ENDCHAR
STARTCHAR 0300
ENCODING 768
SWIDTH 0 0
DWIDTH 0 0
BBX 1 1 -1 7
BITMAP
80
ENDCHAR
STARTCHAR 0301
ENCODING 769
SWIDTH 0 0
DWIDTH 0 0
BBX 1 1 0 7
BITMAP
80
ENDCHAR
STARTCHAR 0302
ENCODING 770
SWIDTH 0 0
DWIDTH 0 0
BBX 2 1 -1 7
BITMAP
C0
ENDCHAR
STARTCHAR 0303
ENCODING 771
SWIDTH 0 0
DWIDTH 0 0
BBX 4 1 -2 7
BITMAP
F0
ENDCHAR
STARTCHAR 0304
ENCODING 772
SWIDTH 0 0
DWIDTH 0 0
BBX 2 1 -1 7
BITMAP
C0
ENDCHAR
STARTCHAR 0306
ENCODING 774
SWIDTH 0 0
DWIDTH 0 0
BBX 0 0 -1 7
BITMAP
ENDCHAR
STARTCHAR 0307
ENCODING 775
SWIDTH 0 0
DWIDTH 0 0
BBX 0 0 0 7
BITMAP
ENDCHAR
STARTCHAR 0308
ENCODING 776
SWIDTH 0 0
DWIDTH 0 0
BBX 0 0 -1 7
BITMAP
ENDCHAR
STARTCHAR 0309
ENCODING 777
SWIDTH 0 0
DWIDTH 0 0
BBX 1 1 0 6
BITMAP
80
ENDCHAR
STARTCHAR 030A
ENCODING 778
SWIDTH 0 0
DWIDTH 0 0
BBX 2 1 -1 8
BITMAP
C0
ENDCHAR
STARTCHAR 030B
ENCODING 779
SWIDTH 0 0
DWIDTH 0 0
BBX 1 1 1 7
BITMAP
80
ENDCHAR
STARTCHAR 030C
ENCODING 780
SWIDTH 0 0
DWIDTH 0 0
BBX 2 1 -1 7
BITMAP
C0
ENDCHAR
STARTCHAR 0312
ENCODING 786
SWIDTH 0 0
DWIDTH 0 0
BBX 0 0 0 7
BITMAP
ENDCHAR
STARTCHAR 0315
ENCODING 789
SWIDTH 0 0
DWIDTH 0 0
BBX 0 0 0 6
BITMAP
ENDCHAR
STARTCHAR 031B
ENCODING 795
SWIDTH 0 0
DWIDTH 0 0
BBX 1 1 -1 6
BITMAP
80
ENDCHAR
STARTCHAR 0323
ENCODING 803
SWIDTH 0 0
DWIDTH 0 0
BBX 0 0 0 -2
BITMAP
ENDCHAR
STARTCHAR 0326
ENCODING 806
SWIDTH 0 0
DWIDTH 0 0
BBX 0 0 -1 -2
BITMAP
ENDCHAR
STARTCHAR 0327
ENCODING 807
SWIDTH 0 0
DWIDTH 0 0
BBX 1 1 0 -1
BITMAP
80
ENDCHAR
STARTCHAR 0328
ENCODING 808
SWIDTH 0 0
DWIDTH 0 0
BBX 1 1 -2 -1
BITMAP
80
ENDCHAR
STARTCHAR 037E
ENCODING 894
SWIDTH 180 0
DWIDTH 2 0
BBX 1 2 1 3
BITMAP
80
80
ENDCHAR
STARTCHAR 0384
ENCODING 900
SWIDTH 540 0
DWIDTH 6 0
BBX 0 0 3 7
BITMAP
ENDCHAR
STARTCHAR 0385
ENCODING 901
SWIDTH 540 0
DWIDTH 6 0
BBX 3 1 2 7
BITMAP
A0
ENDCHAR
STARTCHAR 0386
ENCODING 902
SWIDTH 540 0
DWIDTH 6 0
BBX 6 7 0 0
BITMAP
50
30
30
48
48
78
84
ENDCHAR
STARTCHAR 0387
ENCODING 903
SWIDTH 180 0
DWIDTH 2 0
BBX 0 0 1 5
BITMAP
ENDCHAR
STARTCHAR 0388
ENCODING 904
SWIDTH 540 0
DWIDTH 6 0
BBX 4 8 1 0
BITMAP
F0
80
80
80
F0
80
80
F0
ENDCHAR
STARTCHAR 0389
ENCODING 905
SWIDTH 630 0
DWIDTH 7 0
BBX 6 8 1 0
BITMAP
84
84
84
84
FC
84
84
84
ENDCHAR
STARTCHAR 038A
ENCODING 906
SWIDTH 360 0
DWIDTH 4 0
BBX 1 8 2 0
BITMAP
80
80
80
80
80
80
80
80
ENDCHAR
STARTCHAR 038C
ENCODING 908
SWIDTH 630 0
DWIDTH 7 0
BBX 7 8 0 0
BITMAP
38
44
82
82
82
82
84
7C
ENDCHAR
STARTCHAR 038E
ENCODING 910
SWIDTH 540 0
DWIDTH 6 0
BBX 6 7 1 0
BITMAP
84
88
50
50
20
20
20
ENDCHAR
STARTCHAR 038F
ENCODING 911
SWIDTH 630 0
DWIDTH 7 0
BBX 7 8 0 0
BITMAP
38
44
82
82
82
82
44
24
ENDCHAR
STARTCHAR 0390
ENCODING 912
SWIDTH 180 0
DWIDTH 2 0
BBX 3 7 0 0
BITMAP
E0
00
00
80
80
80
80
ENDCHAR
STARTCHAR 0391
ENCODING 913
SWIDTH 540 0
DWIDTH 6 0
BBX 6 7 0 0
BITMAP
10
30
30
48
48
78
84
ENDCHAR
STARTCHAR 0392
ENCODING 914
SWIDTH 540 0
DWIDTH 6 0
BBX 5 8 1 0
BITMAP
F0
88
88
90
E8
88
88
F8
ENDCHAR
STARTCHAR 0393
ENCODING 915
SWIDTH 450 0
DWIDTH 5 0
BBX 3 7 1 0
BITMAP
60
80
80
80
80
80
80
ENDCHAR
STARTCHAR 0394
ENCODING 916
SWIDTH 540 0
DWIDTH 6 0
BBX 6 8 0 0
BITMAP
10
30
30
48
48
48
84
FC
ENDCHAR
STARTCHAR 0395
ENCODING 917
SWIDTH 540 0
DWIDTH 6 0
BBX 3 8 1 0
BITMAP
E0
80
80
80
E0
80
80
E0
ENDCHAR
STARTCHAR 0396
ENCODING 918
SWIDTH 540 0
DWIDTH 6 0
BBX 5 8 1 0
BITMAP
78
10
20
20
40
80
80
F0
ENDCHAR
STARTCHAR 0397
ENCODING 919
SWIDTH 630 0
DWIDTH 7 0
BBX 5 6 1 1
BITMAP
88
88
88
F8
88
88
ENDCHAR
STARTCHAR 0398
ENCODING 920
SWIDTH 630 0
DWIDTH 7 0
BBX 6 8 1 0
BITMAP
70
88
84
84
B4
84
88
F8
ENDCHAR
STARTCHAR 0399
ENCODING 921
SWIDTH 360 0
DWIDTH 4 0
BBX 1 6 1 1
BITMAP
80
80
80
80
80
80
ENDCHAR
STARTCHAR 039A
ENCODING 922
SWIDTH 540 0
DWIDTH 6 0
BBX 4 6 1 1
BITMAP
90
A0
C0
A0
A0
90
ENDCHAR
STARTCHAR 039B
ENCODING 923
SWIDTH 540 0
DWIDTH 6 0
BBX 6 7 0 0
BITMAP
10
30
30
48
48
88
84
ENDCHAR
STARTCHAR 039C
ENCODING 924
SWIDTH 720 0
DWIDTH 8 0
BBX 7 8 1 0
BITMAP
82
82
CE
AA
B2
82
82
02
ENDCHAR
STARTCHAR 039D
ENCODING 925
SWIDTH 630 0
DWIDTH 7 0
BBX 5 8 1 0
BITMAP
80
88
C8
A8
A8
98
98
08
ENDCHAR
STARTCHAR 039E
ENCODING 926
SWIDTH 540 0
DWIDTH 6 0
BBX 2 8 2 0
BITMAP
C0
00
00
00
C0
00
00
C0
ENDCHAR
STARTCHAR 039F
ENCODING 927
SWIDTH 630 0
DWIDTH 7 0
BBX 6 8 1 0
BITMAP
70
88
84
84
84
84
88
F8
ENDCHAR
STARTCHAR 03A0
ENCODING 928
SWIDTH 630 0
DWIDTH 7 0
BBX 5 7 1 0
BITMAP
F8
88
88
88
88
88
88
ENDCHAR
STARTCHAR 03A1
ENCODING 929
SWIDTH 540 0
DWIDTH 6 0
BBX 5 7 1 0
BITMAP
F0
88
88
88
F0
80
80
ENDCHAR
STARTCHAR 03A3
ENCODING 931
SWIDTH 540 0
DWIDTH 6 0
BBX 4 8 1 0
BITMAP
F0
80
40
40
20
40
80
F0
ENDCHAR
STARTCHAR 03A4
ENCODING 932
SWIDTH 540 0
DWIDTH 6 0
BBX 4 7 1 0
BITMAP
F0
40
40
40
40
40
40
ENDCHAR
STARTCHAR 03A5
ENCODING 933
SWIDTH 540 0
DWIDTH 6 0
BBX 6 7 0 0
BITMAP
84
88
50
50
20
20
20
ENDCHAR
STARTCHAR 03A6
ENCODING 934
SWIDTH 810 0
DWIDTH 9 0
BBX 7 8 1 0
BITMAP
10
FE
92
92
92
92
92
7C
ENDCHAR
STARTCHAR 03A7
ENCODING 935
SWIDTH 540 0
DWIDTH 6 0
BBX 5 8 1 0
BITMAP
08
90
A0
60
20
E0
90
08
ENDCHAR
STARTCHAR 03A8
ENCODING 936
SWIDTH 720 0
DWIDTH 8 0
BBX 6 6 1 1
BITMAP
A4
A4
A4
A4
78
20
ENDCHAR
STARTCHAR 03A9
ENCODING 937
SWIDTH 630 0
DWIDTH 7 0
BBX 6 8 1 0
BITMAP
70
88
84
84
84
84
88
48
ENDCHAR
STARTCHAR 03AA
ENCODING 938
SWIDTH 360 0
DWIDTH 4 0
BBX 1 6 1 3
BITMAP
80
80
80
80
80
80
ENDCHAR
STARTCHAR 03AB
ENCODING 939
SWIDTH 540 0
DWIDTH 6 0
BBX 6 7 0 2
BITMAP
84
88
50
50
20
20
20
ENDCHAR
STARTCHAR 03AC
ENCODING 940
SWIDTH 630 0
DWIDTH 7 0
BBX 5 6 1 2
BITMAP
E0
98
90
90
88
F0
ENDCHAR
STARTCHAR 03AD
ENCODING 941
SWIDTH 450 0
DWIDTH 5 0
BBX 4 8 1 0
BITMAP
20
00
60
80
80
C0
80
F0
ENDCHAR
STARTCHAR 03AE
ENCODING 942
SWIDTH 540 0
DWIDTH 6 0
BBX 5 9 0 -2
BITMAP
10
00
B0
48
48
48
48
48
08
ENDCHAR
STARTCHAR 03AF
ENCODING 943
SWIDTH 180 0
DWIDTH 2 0
BBX 1 4 1 3
BITMAP
80
80
80
80
ENDCHAR
STARTCHAR 03B0
ENCODING 944
SWIDTH 540 0
DWIDTH 6 0
BBX 4 5 1 3
BITMAP
90
90
90
90
F0
ENDCHAR
STARTCHAR 03B1
ENCODING 945
SWIDTH 630 0
DWIDTH 7 0
BBX 5 6 1 0
BITMAP
E0
98
90
90
88
F0
ENDCHAR
STARTCHAR 03B2
ENCODING 946
SWIDTH 540 0
DWIDTH 6 0
BBX 5 9 1 -2
BITMAP
F0
90
90
E0
90
88
88
90
E0
ENDCHAR
STARTCHAR 03B3
ENCODING 947
SWIDTH 450 0
DWIDTH 5 0
BBX 5 7 0 -2
BITMAP
80
88
50
50
60
20
20
ENDCHAR
STARTCHAR 03B4
ENCODING 948
SWIDTH 540 0
DWIDTH 6 0
BBX 4 8 1 0
BITMAP
E0
40
20
D0
90
90
90
F0
ENDCHAR
STARTCHAR 03B5
ENCODING 949
SWIDTH 450 0
DWIDTH 5 0
BBX 4 6 1 0
BITMAP
60
80
80
C0
80
F0
ENDCHAR
STARTCHAR 03B6
ENCODING 950
SWIDTH 360 0
DWIDTH 4 0
BBX 3 9 1 -2
BITMAP
60
40
80
80
80
80
80
80
60
ENDCHAR
STARTCHAR 03B7
ENCODING 951
SWIDTH 540 0
DWIDTH 6 0
BBX 5 7 0 -2
BITMAP
B0
48
48
48
48
48
08
ENDCHAR
STARTCHAR 03B8
ENCODING 952
SWIDTH 540 0
DWIDTH 6 0
BBX 4 8 1 0
BITMAP
F0
90
90
90
F0
90
90
F0
ENDCHAR
STARTCHAR 03B9
ENCODING 953
SWIDTH 180 0
DWIDTH 2 0
BBX 1 4 1 1
BITMAP
80
80
80
80
ENDCHAR
STARTCHAR 03BA
ENCODING 954
SWIDTH 450 0
DWIDTH 5 0
BBX 4 5 1 0
BITMAP
10
A0
C0
C0
A0
ENDCHAR
STARTCHAR 03BB
ENCODING 955
SWIDTH 450 0
DWIDTH 5 0
BBX 4 7 0 1
BITMAP
40
20
60
60
90
90
80
ENDCHAR
STARTCHAR 03BC
ENCODING 956
SWIDTH 540 0
DWIDTH 6 0
BBX 4 6 1 -1
BITMAP
90
90
90
90
90
E0
ENDCHAR
STARTCHAR 03BD
ENCODING 957
SWIDTH 450 0
DWIDTH 5 0
BBX 5 6 0 0
BITMAP
80
88
50
50
60
20
ENDCHAR
STARTCHAR 03BE
ENCODING 958
SWIDTH 450 0
DWIDTH 5 0
BBX 3 9 1 -2
BITMAP
E0
80
80
60
80
80
80
40
20
ENDCHAR
STARTCHAR 03BF
ENCODING 959
SWIDTH 540 0
DWIDTH 6 0
BBX 4 6 1 0
BITMAP
60
90
90
90
90
F0
ENDCHAR
STARTCHAR 03C0
ENCODING 960
SWIDTH 540 0
DWIDTH 6 0
BBX 6 6 0 0
BITMAP
FC
48
48
48
48
40
ENDCHAR
STARTCHAR 03C1
ENCODING 961
SWIDTH 450 0
DWIDTH 5 0
BBX 4 7 1 -2
BITMAP
60
90
90
90
90
90
E0
ENDCHAR
STARTCHAR 03C2
ENCODING 962
SWIDTH 450 0
DWIDTH 5 0
BBX 3 7 1 -2
BITMAP
60
80
80
80
80
40
20
ENDCHAR
STARTCHAR 03C3
ENCODING 963
SWIDTH 540 0
DWIDTH 6 0
BBX 5 6 1 0
BITMAP
78
90
90
90
90
F0
ENDCHAR
STARTCHAR 03C4
ENCODING 964
SWIDTH 450 0
DWIDTH 5 0
BBX 5 6 0 0
BITMAP
F8
20
20
20
20
20
ENDCHAR
STARTCHAR 03C5
ENCODING 965
SWIDTH 540 0
DWIDTH 6 0
BBX 4 5 1 1
BITMAP
90
90
90
90
F0
ENDCHAR
STARTCHAR 03C6
ENCODING 966
SWIDTH 630 0
DWIDTH 7 0
BBX 6 8 1 -2
BITMAP
18
A4
A4
A4
A4
A8
70
20
ENDCHAR
STARTCHAR 03C7
ENCODING 967
SWIDTH 450 0
DWIDTH 5 0
BBX 5 7 0 -2
BITMAP
88
90
50
60
60
60
90
ENDCHAR
STARTCHAR 03C8
ENCODING 968
SWIDTH 630 0
DWIDTH 7 0
BBX 6 8 1 -1
BITMAP
20
24
A4
A4
A4
A4
A8
70
ENDCHAR
STARTCHAR 03C9
ENCODING 969
SWIDTH 630 0
DWIDTH 7 0
BBX 6 5 1 1
BITMAP
84
84
A4
A4
FC
ENDCHAR
STARTCHAR 03CA
ENCODING 970
SWIDTH 180 0
DWIDTH 2 0
BBX 3 7 0 0
BITMAP
A0
00
00
80
80
80
80
ENDCHAR
STARTCHAR 03CB
ENCODING 971
SWIDTH 540 0
DWIDTH 6 0
BBX 4 5 1 3
BITMAP
90
90
90
90
F0
ENDCHAR
STARTCHAR 03CC
ENCODING 972
SWIDTH 540 0
DWIDTH 6 0
BBX 4 6 1 2
BITMAP
60
90
90
90
90
F0
ENDCHAR
STARTCHAR 03CD
ENCODING 973
SWIDTH 540 0
DWIDTH 6 0
BBX 4 8 1 0
BITMAP
20
00
00
90
90
90
90
F0
ENDCHAR
STARTCHAR 03CE
ENCODING 974
SWIDTH 630 0
DWIDTH 7 0
BBX 6 5 1 3
BITMAP
84
84
A4
A4
FC
ENDCHAR
STARTCHAR 0400
ENCODING 1024
SWIDTH 540 0
DWIDTH 6 0
BBX 3 8 1 2
BITMAP
E0
80
80
80
E0
80
80
E0
ENDCHAR
STARTCHAR 0401
ENCODING 1025
SWIDTH 540 0
DWIDTH 6 0
BBX 4 10 1 0
BITMAP
50
00
E0
80
80
80
E0
80
80
E0
ENDCHAR
STARTCHAR 0402
ENCODING 1026
SWIDTH 720 0
DWIDTH 8 0
BBX 7 10 1 -2
BITMAP
F0
40
40
58
66
42
42
02
02
04
ENDCHAR
STARTCHAR 0403
ENCODING 1027
SWIDTH 450 0
DWIDTH 5 0
BBX 3 9 1 0
BITMAP
20
00
60
80
80
80
80
80
80
ENDCHAR
STARTCHAR 0404
ENCODING 1028
SWIDTH 540 0
DWIDTH 6 0
BBX 4 8 1 0
BITMAP
70
80
80
80
E0
80
80
F0
ENDCHAR
STARTCHAR 0405
ENCODING 1029
SWIDTH 540 0
DWIDTH 6 0
BBX 5 8 0 0
BITMAP
78
80
80
40
38
08
08
78
ENDCHAR
STARTCHAR 0406
ENCODING 1030
SWIDTH 360 0
DWIDTH 4 0
BBX 1 6 1 1
BITMAP
80
80
80
80
80
80
ENDCHAR
STARTCHAR 0407
ENCODING 1031
SWIDTH 360 0
DWIDTH 4 0
BBX 1 6 1 3
BITMAP
80
80
80
80
80
80
ENDCHAR
STARTCHAR 0408
ENCODING 1032
SWIDTH 450 0
DWIDTH 5 0
BBX 3 8 1 0
BITMAP
60
20
20
20
20
20
20
E0
ENDCHAR
STARTCHAR 0409
ENCODING 1033
SWIDTH 900 0
DWIDTH 10 0
BBX 10 8 0 0
BITMAP
7C00
4400
4400
4400
47C0
4440
4440
87C0
ENDCHAR
STARTCHAR 040A
ENCODING 1034
SWIDTH 990 0
DWIDTH 11 0
BBX 10 7 1 1
BITMAP
8800
8800
8800
FF80
8840
8840
0F80
ENDCHAR
STARTCHAR 040B
ENCODING 1035
SWIDTH 720 0
DWIDTH 8 0
BBX 7 7 1 0
BITMAP
F0
40
40
5C
62
42
42
ENDCHAR
STARTCHAR 040C
ENCODING 1036
SWIDTH 540 0
DWIDTH 6 0
BBX 5 8 1 2
BITMAP
08
90
A0
A0
E0
A0
90
08
ENDCHAR
STARTCHAR 040D
ENCODING 1037
SWIDTH 630 0
DWIDTH 7 0
BBX 5 10 1 0
BITMAP
20
00
00
88
98
A8
A8
C8
88
80
ENDCHAR
STARTCHAR 040E
ENCODING 1038
SWIDTH 540 0
DWIDTH 6 0
BBX 6 10 0 0
BITMAP
08
10
80
84
48
48
30
30
10
20
ENDCHAR
STARTCHAR 040F
ENCODING 1039
SWIDTH 630 0
DWIDTH 7 0
BBX 5 8 1 -1
BITMAP
88
88
88
88
88
88
88
70
ENDCHAR
STARTCHAR 0410
ENCODING 1040
SWIDTH 540 0
DWIDTH 6 0
BBX 6 7 0 0
BITMAP
10
30
30
48
48
78
84
ENDCHAR
STARTCHAR 0411
ENCODING 1041
SWIDTH 540 0
DWIDTH 6 0
BBX 5 8 1 0
BITMAP
E0
80
80
80
F8
88
88
F0
ENDCHAR
STARTCHAR 0412
ENCODING 1042
SWIDTH 540 0
DWIDTH 6 0
BBX 5 8 1 0
BITMAP
F0
88
88
90
E8
88
88
F8
ENDCHAR
STARTCHAR 0413
ENCODING 1043
SWIDTH 450 0
DWIDTH 5 0
BBX 3 7 1 0
BITMAP
60
80
80
80
80
80
80
ENDCHAR
STARTCHAR 0414
ENCODING 1044
SWIDTH 630 0
DWIDTH 7 0
BBX 7 9 0 -2
BITMAP
7C
44
44
44
44
44
44
84
FA
ENDCHAR
STARTCHAR 0415
ENCODING 1045
SWIDTH 540 0
DWIDTH 6 0
BBX 3 8 1 0
BITMAP
E0
80
80
80
E0
80
80
E0
ENDCHAR
STARTCHAR 0416
ENCODING 1046
SWIDTH 900 0
DWIDTH 10 0
BBX 8 8 1 0
BITMAP
81
92
52
54
7C
52
92
81
ENDCHAR
STARTCHAR 0417
ENCODING 1047
SWIDTH 540 0
DWIDTH 6 0
BBX 5 8 1 0
BITMAP
70
10
10
10
30
08
08
F0
ENDCHAR
STARTCHAR 0418
ENCODING 1048
SWIDTH 630 0
DWIDTH 7 0
BBX 5 7 1 1
BITMAP
88
98
A8
A8
C8
88
80
ENDCHAR
STARTCHAR 0419
ENCODING 1049
SWIDTH 630 0
DWIDTH 7 0
BBX 5 9 1 1
BITMAP
20
00
88
98
A8
A8
C8
88
80
ENDCHAR
STARTCHAR 041A
ENCODING 1050
SWIDTH 540 0
DWIDTH 6 0
BBX 5 8 1 0
BITMAP
08
90
A0
A0
E0
A0
90
08
ENDCHAR
STARTCHAR 041B
ENCODING 1051
SWIDTH 630 0
DWIDTH 7 0
BBX 6 8 0 0
BITMAP
7C
44
44
44
44
44
44
80
ENDCHAR
STARTCHAR 041C
ENCODING 1052
SWIDTH 720 0
DWIDTH 8 0
BBX 7 8 1 0
BITMAP
82
82
CE
AA
B2
82
82
02
ENDCHAR
STARTCHAR 041D
ENCODING 1053
SWIDTH 630 0
DWIDTH 7 0
BBX 5 6 1 1
BITMAP
88
88
88
F8
88
88
ENDCHAR
STARTCHAR 041E
ENCODING 1054
SWIDTH 630 0
DWIDTH 7 0
BBX 6 8 1 0
BITMAP
70
88
84
84
84
84
88
F8
ENDCHAR
STARTCHAR 041F
ENCODING 1055
SWIDTH 630 0
DWIDTH 7 0
BBX 5 7 1 0
BITMAP
F8
88
88
88
88
88
88
ENDCHAR
STARTCHAR 0420
ENCODING 1056
SWIDTH 540 0
DWIDTH 6 0
BBX 5 7 1 0
BITMAP
F0
88
88
88
F0
80
80
ENDCHAR
STARTCHAR 0421
ENCODING 1057
SWIDTH 540 0
DWIDTH 6 0
BBX 4 8 1 0
BITMAP
70
80
80
80
80
80
80
F0
ENDCHAR
STARTCHAR 0422
ENCODING 1058
SWIDTH 540 0
DWIDTH 6 0
BBX 4 7 1 0
BITMAP
F0
40
40
40
40
40
40
ENDCHAR
STARTCHAR 0423
ENCODING 1059
SWIDTH 540 0
DWIDTH 6 0
BBX 6 8 0 0
BITMAP
80
84
48
48
30
30
10
20
ENDCHAR
STARTCHAR 0424
ENCODING 1060
SWIDTH 810 0
DWIDTH 9 0
BBX 7 8 1 0
BITMAP
10
FC
92
92
92
92
94
78
ENDCHAR
STARTCHAR 0425
ENCODING 1061
SWIDTH 540 0
DWIDTH 6 0
BBX 5 8 1 0
BITMAP
08
90
A0
60
20
E0
90
08
ENDCHAR
STARTCHAR 0426
ENCODING 1062
SWIDTH 630 0
DWIDTH 7 0
BBX 6 8 1 -1
BITMAP
88
88
88
88
88
88
88
74
ENDCHAR
STARTCHAR 0427
ENCODING 1063
SWIDTH 540 0
DWIDTH 6 0
BBX 5 8 1 0
BITMAP
08
88
88
88
88
78
08
08
ENDCHAR
STARTCHAR 0428
ENCODING 1064
SWIDTH 900 0
DWIDTH 10 0
BBX 8 7 1 1
BITMAP
91
91
91
91
91
91
FF
ENDCHAR
STARTCHAR 0429
ENCODING 1065
SWIDTH 900 0
DWIDTH 10 0
BBX 9 8 1 -1
BITMAP
9100
9100
9100
9100
9100
9100
9100
6E80
ENDCHAR
STARTCHAR 042A
ENCODING 1066
SWIDTH 720 0
DWIDTH 8 0
BBX 6 8 1 0
BITMAP
C0
40
40
40
7C
44
44
7C
ENDCHAR
STARTCHAR 042B
ENCODING 1067
SWIDTH 810 0
DWIDTH 9 0
BBX 7 7 1 1
BITMAP
82
82
82
FA
8A
8A
F0
ENDCHAR
STARTCHAR 042C
ENCODING 1068
SWIDTH 540 0
DWIDTH 6 0
BBX 5 7 1 1
BITMAP
80
80
80
F8
88
88
F8
ENDCHAR
STARTCHAR 042D
ENCODING 1069
SWIDTH 540 0
DWIDTH 6 0
BBX 5 8 1 0
BITMAP
F0
10
08
08
38
08
08
F0
ENDCHAR
STARTCHAR 042E
ENCODING 1070
SWIDTH 900 0
DWIDTH 10 0
BBX 8 8 1 0
BITMAP
1E
A1
A1
A1
E1
A1
A1
1E
ENDCHAR
STARTCHAR 042F
ENCODING 1071
SWIDTH 630 0
DWIDTH 7 0
BBX 6 8 0 0
BITMAP
7C
84
84
84
7C
24
44
80
ENDCHAR
STARTCHAR 0430
ENCODING 1072
SWIDTH 450 0
DWIDTH 5 0
BBX 4 6 1 0
BITMAP
E0
10
10
F0
90
F0
ENDCHAR
STARTCHAR 0431
ENCODING 1073
SWIDTH 540 0
DWIDTH 6 0
BBX 4 8 1 0
BITMAP
60
80
E0
90
90
90
90
F0
ENDCHAR
STARTCHAR 0432
ENCODING 1074
SWIDTH 540 0
DWIDTH 6 0
BBX 4 6 1 0
BITMAP
E0
90
90
F0
90
F0
ENDCHAR
STARTCHAR 0433
ENCODING 1075
SWIDTH 360 0
DWIDTH 4 0
BBX 3 5 1 0
BITMAP
E0
80
80
80
80
ENDCHAR
STARTCHAR 0434
ENCODING 1076
SWIDTH 540 0
DWIDTH 6 0
BBX 6 8 0 -2
BITMAP
38
48
48
48
88
88
F4
04
ENDCHAR
STARTCHAR 0435
ENCODING 1077
SWIDTH 450 0
DWIDTH 5 0
BBX 4 6 1 0
BITMAP
E0
90
90
E0
80
F0
ENDCHAR
STARTCHAR 0436
ENCODING 1078
SWIDTH 720 0
DWIDTH 8 0
BBX 7 6 1 0
BITMAP
02
A4
A8
78
A8
84
ENDCHAR
STARTCHAR 0437
ENCODING 1079
SWIDTH 450 0
DWIDTH 5 0
BBX 4 6 1 0
BITMAP
E0
20
20
20
10
60
ENDCHAR
STARTCHAR 0438
ENCODING 1080
SWIDTH 540 0
DWIDTH 6 0
BBX 4 5 1 1
BITMAP
B0
B0
D0
90
80
ENDCHAR
STARTCHAR 0439
ENCODING 1081
SWIDTH 540 0
DWIDTH 6 0
BBX 4 7 1 1
BITMAP
20
00
B0
B0
D0
90
80
ENDCHAR
STARTCHAR 043A
ENCODING 1082
SWIDTH 450 0
DWIDTH 5 0
BBX 4 5 1 0
BITMAP
10
A0
C0
C0
A0
ENDCHAR
STARTCHAR 043B
ENCODING 1083
SWIDTH 450 0
DWIDTH 5 0
BBX 5 6 0 0
BITMAP
38
48
48
48
48
80
ENDCHAR
STARTCHAR 043C
ENCODING 1084
SWIDTH 630 0
DWIDTH 7 0
BBX 5 5 1 0
BITMAP
80
88
D8
E8
88
ENDCHAR
STARTCHAR 043D
ENCODING 1085
SWIDTH 540 0
DWIDTH 6 0
BBX 4 4 1 1
BITMAP
90
90
F0
90
ENDCHAR
STARTCHAR 043E
ENCODING 1086
SWIDTH 540 0
DWIDTH 6 0
BBX 4 6 1 0
BITMAP
60
90
90
90
90
F0
ENDCHAR
STARTCHAR 043F
ENCODING 1087
SWIDTH 540 0
DWIDTH 6 0
BBX 4 5 1 0
BITMAP
F0
90
90
90
90
ENDCHAR
STARTCHAR 0440
ENCODING 1088
SWIDTH 540 0
DWIDTH 6 0
BBX 5 7 1 -2
BITMAP
60
90
88
88
90
90
E0
ENDCHAR
STARTCHAR 0441
ENCODING 1089
SWIDTH 450 0
DWIDTH 5 0
BBX 4 6 1 0
BITMAP
60
80
80
80
80
F0
ENDCHAR
STARTCHAR 0442
ENCODING 1090
SWIDTH 450 0
DWIDTH 5 0
BBX 5 5 0 0
BITMAP
F8
20
20
20
20
ENDCHAR
STARTCHAR 0443
ENCODING 1091
SWIDTH 450 0
DWIDTH 5 0
BBX 5 7 0 -2
BITMAP
88
90
90
50
60
60
40
ENDCHAR
STARTCHAR 0444
ENCODING 1092
SWIDTH 720 0
DWIDTH 8 0
BBX 6 8 1 -1
BITMAP
20
F8
A4
A4
A4
A4
94
68
ENDCHAR
STARTCHAR 0445
ENCODING 1093
SWIDTH 450 0
DWIDTH 5 0
BBX 4 5 1 0
BITMAP
10
A0
C0
C0
A0
ENDCHAR
STARTCHAR 0446
ENCODING 1094
SWIDTH 540 0
DWIDTH 6 0
BBX 5 6 1 -1
BITMAP
90
90
90
90
90
68
ENDCHAR
STARTCHAR 0447
ENCODING 1095
SWIDTH 450 0
DWIDTH 5 0
BBX 4 6 1 0
BITMAP
10
90
90
B0
50
10
ENDCHAR
STARTCHAR 0448
ENCODING 1096
SWIDTH 720 0
DWIDTH 8 0
BBX 6 5 1 1
BITMAP
A4
A4
A4
A4
FC
ENDCHAR
STARTCHAR 0449
ENCODING 1097
SWIDTH 720 0
DWIDTH 8 0
BBX 7 6 1 -1
BITMAP
A4
A4
A4
A4
A4
5A
ENDCHAR
STARTCHAR 044A
ENCODING 1098
SWIDTH 540 0
DWIDTH 6 0
BBX 6 6 0 0
BITMAP
C0
40
40
7C
44
7C
ENDCHAR
STARTCHAR 044B
ENCODING 1099
SWIDTH 630 0
DWIDTH 7 0
BBX 5 5 1 1
BITMAP
88
88
F8
98
E0
ENDCHAR
STARTCHAR 044C
ENCODING 1100
SWIDTH 450 0
DWIDTH 5 0
BBX 4 5 1 1
BITMAP
80
80
F0
90
F0
ENDCHAR
STARTCHAR 044D
ENCODING 1101
SWIDTH 450 0
DWIDTH 5 0
BBX 4 6 1 0
BITMAP
E0
10
10
30
10
60
ENDCHAR
STARTCHAR 044E
ENCODING 1102
SWIDTH 720 0
DWIDTH 8 0
BBX 6 6 1 0
BITMAP
18
A4
C4
C4
C4
3C
ENDCHAR
STARTCHAR 044F
ENCODING 1103
SWIDTH 450 0
DWIDTH 5 0
BBX 5 6 0 0
BITMAP
38
C8
88
78
48
88
ENDCHAR
STARTCHAR 0450
ENCODING 1104
SWIDTH 450 0
DWIDTH 5 0
BBX 4 8 1 0
BITMAP
40
00
E0
90
90
E0
80
F0
ENDCHAR
STARTCHAR 0451
ENCODING 1105
SWIDTH 450 0
DWIDTH 5 0
BBX 4 6 1 2
BITMAP
E0
90
90
E0
80
F0
ENDCHAR
STARTCHAR 0452
ENCODING 1106
SWIDTH 540 0
DWIDTH 6 0
BBX 5 9 0 -1
BITMAP
C0
B0
48
88
88
88
08
08
08
ENDCHAR
STARTCHAR 0453
ENCODING 1107
SWIDTH 360 0
DWIDTH 4 0
BBX 3 5 1 2
BITMAP
E0
80
80
80
80
ENDCHAR
STARTCHAR 0454
ENCODING 1108
SWIDTH 450 0
DWIDTH 5 0
BBX 4 6 1 0
BITMAP
60
80
80
C0
80
F0
ENDCHAR
STARTCHAR 0455
ENCODING 1109
SWIDTH 450 0
DWIDTH 5 0
BBX 3 6 1 0
BITMAP
E0
80
80
60
20
60
ENDCHAR
STARTCHAR 0456
ENCODING 1110
SWIDTH 180 0
DWIDTH 2 0
BBX 1 4 1 3
BITMAP
80
80
80
80
ENDCHAR
STARTCHAR 0457
ENCODING 1111
SWIDTH 180 0
DWIDTH 2 0
BBX 3 7 0 0
BITMAP
A0
00
00
80
80
80
80
ENDCHAR
STARTCHAR 0458
ENCODING 1112
SWIDTH 180 0
DWIDTH 2 0
BBX 1 6 0 1
BITMAP
80
80
80
80
80
80
ENDCHAR
STARTCHAR 0459
ENCODING 1113
SWIDTH 720 0
DWIDTH 8 0
BBX 8 6 0 0
BITMAP
30
50
50
5F
51
9E
ENDCHAR
STARTCHAR 045A
ENCODING 1114
SWIDTH 720 0
DWIDTH 8 0
BBX 7 5 1 1
BITMAP
90
90
FE
92
1E
ENDCHAR
STARTCHAR 045B
ENCODING 1115
SWIDTH 540 0
DWIDTH 6 0
BBX 5 6 0 1
BITMAP
C0
B0
48
88
88
88
ENDCHAR
STARTCHAR 045C
ENCODING 1116
SWIDTH 450 0
DWIDTH 5 0
BBX 4 7 1 0
BITMAP
20
00
10
A0
C0
C0
A0
ENDCHAR
STARTCHAR 045D
ENCODING 1117
SWIDTH 540 0
DWIDTH 6 0
BBX 4 5 1 3
BITMAP
B0
B0
D0
90
80
ENDCHAR
STARTCHAR 045E
ENCODING 1118
SWIDTH 450 0
DWIDTH 5 0
BBX 5 9 0 -2
BITMAP
50
20
88
90
90
50
60
60
40
ENDCHAR
STARTCHAR 045F
ENCODING 1119
SWIDTH 540 0
DWIDTH 6 0
BBX 4 6 1 -1
BITMAP
90
90
90
90
90
60
ENDCHAR
STARTCHAR 0472
ENCODING 1138
SWIDTH 630 0
DWIDTH 7 0
BBX 6 8 1 0
BITMAP
70
88
84
84
FC
84
88
F8
ENDCHAR
STARTCHAR 0473
ENCODING 1139
SWIDTH 540 0
DWIDTH 6 0
BBX 4 6 1 0
BITMAP
60
90
90
F0
90
F0
ENDCHAR
STARTCHAR 0490
ENCODING 1168
SWIDTH 450 0
DWIDTH 5 0
BBX 3 7 1 1
BITMAP
E0
80
80
80
80
80
80
ENDCHAR
STARTCHAR 0491
ENCODING 1169
SWIDTH 360 0
DWIDTH 4 0
BBX 3 5 1 1
BITMAP
E0
80
80
80
80
ENDCHAR
STARTCHAR 0492
ENCODING 1170
SWIDTH 450 0
DWIDTH 5 0
BBX 3 8 1 0
BITMAP
E0
80
80
80
C0
80
80
80
ENDCHAR
STARTCHAR 0493
ENCODING 1171
SWIDTH 450 0
DWIDTH 5 0
BBX 4 6 1 0
BITMAP
F0
80
80
C0
80
80
ENDCHAR
STARTCHAR 0494
ENCODING 1172
SWIDTH 540 0
DWIDTH 6 0
BBX 5 10 1 -2
BITMAP
E0
80
80
80
F8
88
88
08
08
08
ENDCHAR
STARTCHAR 0495
ENCODING 1173
SWIDTH 450 0
DWIDTH 5 0
BBX 4 8 1 -2
BITMAP
E0
80
80
F0
90
10
10
10
ENDCHAR
STARTCHAR 0496
ENCODING 1174
SWIDTH 900 0
DWIDTH 10 0
BBX 9 10 1 -2
BITMAP
8100
9200
5200
5400
7C00
5200
9200
8100
0080
0080
ENDCHAR
STARTCHAR 0497
ENCODING 1175
SWIDTH 720 0
DWIDTH 8 0
BBX 7 7 1 -2
BITMAP
02
A4
A8
78
A8
84
02
ENDCHAR
STARTCHAR 0498
ENCODING 1176
SWIDTH 540 0
DWIDTH 6 0
BBX 5 9 1 -2
BITMAP
70
10
10
10
30
08
08
90
60
ENDCHAR
STARTCHAR 0499
ENCODING 1177
SWIDTH 450 0
DWIDTH 5 0
BBX 4 8 1 -2
BITMAP
E0
20
20
20
10
20
40
40
ENDCHAR
STARTCHAR 049A
ENCODING 1178
SWIDTH 540 0
DWIDTH 6 0
BBX 5 9 1 -2
BITMAP
08
90
A0
A0
E0
A0
90
08
08
ENDCHAR
STARTCHAR 049B
ENCODING 1179
SWIDTH 450 0
DWIDTH 5 0
BBX 4 7 1 -2
BITMAP
10
A0
C0
C0
A0
20
10
ENDCHAR
STARTCHAR 049C
ENCODING 1180
SWIDTH 540 0
DWIDTH 6 0
BBX 5 8 1 0
BITMAP
08
90
E0
E0
E0
E0
90
08
ENDCHAR
STARTCHAR 049D
ENCODING 1181
SWIDTH 540 0
DWIDTH 6 0
BBX 4 5 1 1
BITMAP
A0
A0
C0
A0
10
ENDCHAR
STARTCHAR 04A0
ENCODING 1184
SWIDTH 720 0
DWIDTH 8 0
BBX 6 8 1 0
BITMAP
C0
4C
48
50
70
48
48
44
ENDCHAR
STARTCHAR 04A1
ENCODING 1185
SWIDTH 540 0
DWIDTH 6 0
BBX 6 5 0 0
BITMAP
C4
48
50
70
48
ENDCHAR
STARTCHAR 04A2
ENCODING 1186
SWIDTH 720 0
DWIDTH 8 0
BBX 6 8 1 -1
BITMAP
88
88
88
F8
88
88
08
04
ENDCHAR
STARTCHAR 04A3
ENCODING 1187
SWIDTH 540 0
DWIDTH 6 0
BBX 5 6 1 -1
BITMAP
90
90
F0
90
10
08
ENDCHAR
STARTCHAR 04A4
ENCODING 1188
SWIDTH 900 0
DWIDTH 10 0
BBX 8 7 1 0
BITMAP
07
88
88
88
F8
88
88
ENDCHAR
STARTCHAR 04A5
ENCODING 1189
SWIDTH 720 0
DWIDTH 8 0
BBX 7 5 1 0
BITMAP
0E
90
90
F0
90
ENDCHAR
STARTCHAR 04AA
ENCODING 1194
SWIDTH 540 0
DWIDTH 6 0
BBX 4 9 1 -2
BITMAP
70
80
80
80
80
80
80
90
60
ENDCHAR
STARTCHAR 04AB
ENCODING 1195
SWIDTH 450 0
DWIDTH 5 0
BBX 4 7 1 -2
BITMAP
60
80
80
80
80
90
60
ENDCHAR
STARTCHAR 04AE
ENCODING 1198
SWIDTH 540 0
DWIDTH 6 0
BBX 6 7 0 0
BITMAP
84
88
50
50
20
20
20
ENDCHAR
STARTCHAR 04AF
ENCODING 1199
SWIDTH 450 0
DWIDTH 5 0
BBX 5 8 0 -2
BITMAP
88
90
90
50
60
60
20
20
ENDCHAR
STARTCHAR 04B0
ENCODING 1200
SWIDTH 540 0
DWIDTH 6 0
BBX 6 7 0 0
BITMAP
84
88
50
50
20
30
20
ENDCHAR
STARTCHAR 04B1
ENCODING 1201
SWIDTH 450 0
DWIDTH 5 0
BBX 5 8 0 -2
BITMAP
88
90
90
50
60
60
20
20
ENDCHAR
STARTCHAR 04B2
ENCODING 1202
SWIDTH 540 0
DWIDTH 6 0
BBX 6 10 1 -2
BITMAP
08
90
A0
60
20
E0
90
08
04
04
ENDCHAR
STARTCHAR 04B3
ENCODING 1203
SWIDTH 450 0
DWIDTH 5 0
BBX 4 7 1 -2
BITMAP
10
A0
C0
C0
A0
20
10
ENDCHAR
STARTCHAR 04B6
ENCODING 1206
SWIDTH 630 0
DWIDTH 7 0
BBX 6 10 1 -2
BITMAP
08
88
88
88
88
78
08
08
04
04
ENDCHAR
STARTCHAR 04B7
ENCODING 1207
SWIDTH 450 0
DWIDTH 5 0
BBX 4 7 1 -2
BITMAP
10
90
90
B0
50
10
10
ENDCHAR
STARTCHAR 04B8
ENCODING 1208
SWIDTH 540 0
DWIDTH 6 0
BBX 5 8 1 0
BITMAP
08
88
88
88
C8
78
08
08
ENDCHAR
STARTCHAR 04B9
ENCODING 1209
SWIDTH 450 0
DWIDTH 5 0
BBX 4 6 1 0
BITMAP
10
90
90
B0
50
10
ENDCHAR
STARTCHAR 04BA
ENCODING 1210
SWIDTH 540 0
DWIDTH 6 0
BBX 5 6 1 1
BITMAP
80
80
F0
88
88
88
ENDCHAR
STARTCHAR 04BB
ENCODING 1211
SWIDTH 540 0
DWIDTH 6 0
BBX 4 6 1 1
BITMAP
80
E0
90
90
90
90
ENDCHAR
STARTCHAR 04C0
ENCODING 1216
SWIDTH 360 0
DWIDTH 4 0
BBX 1 6 1 1
BITMAP
80
80
80
80
80
80
ENDCHAR
STARTCHAR 04C1
ENCODING 1217
SWIDTH 900 0
DWIDTH 10 0
BBX 8 8 1 2
BITMAP
81
92
52
54
7C
52
92
81
ENDCHAR
STARTCHAR 04C2
ENCODING 1218
SWIDTH 720 0
DWIDTH 8 0
BBX 7 7 1 1
BITMAP
10
02
A4
A8
78
A8
84
ENDCHAR
STARTCHAR 04CF
ENCODING 1231
SWIDTH 180 0
DWIDTH 2 0
BBX 1 6 1 1
BITMAP
80
80
80
80
80
80
ENDCHAR
STARTCHAR 04D0
ENCODING 1232
SWIDTH 540 0
DWIDTH 6 0
BBX 6 9 0 0
BITMAP
08
10
10
30
30
48
48
78
84
ENDCHAR
STARTCHAR 04D1
ENCODING 1233
SWIDTH 450 0
DWIDTH 5 0
BBX 4 7 1 1
BITMAP
40
E0
10
10
F0
90
F0
ENDCHAR
STARTCHAR 04D2
ENCODING 1234
SWIDTH 540 0
DWIDTH 6 0
BBX 6 9 0 0
BITMAP
28
00
10
30
30
48
48
78
84
ENDCHAR
STARTCHAR 04D3
ENCODING 1235
SWIDTH 450 0
DWIDTH 5 0
BBX 4 6 1 2
BITMAP
E0
10
10
F0
90
F0
ENDCHAR
STARTCHAR 04D4
ENCODING 1236
SWIDTH 810 0
DWIDTH 9 0
BBX 8 8 0 0
BITMAP
1F
18
28
28
4F
78
88
87
ENDCHAR
STARTCHAR 04D5
ENCODING 1237
SWIDTH 810 0
DWIDTH 9 0
BBX 8 6 1 0
BITMAP
EE
31
11
FE
90
FE
ENDCHAR
STARTCHAR 04D6
ENCODING 1238
SWIDTH 540 0
DWIDTH 6 0
BBX 4 10 1 0
BITMAP
10
20
E0
80
80
80
E0
80
80
E0
ENDCHAR
STARTCHAR 04D7
ENCODING 1239
SWIDTH 450 0
DWIDTH 5 0
BBX 4 6 1 2
BITMAP
E0
90
90
E0
80
F0
ENDCHAR
STARTCHAR 04D8
ENCODING 1240
SWIDTH 630 0
DWIDTH 7 0
BBX 6 8 1 0
BITMAP
70
88
04
04
FC
84
88
F8
ENDCHAR
STARTCHAR 04D9
ENCODING 1241
SWIDTH 450 0
DWIDTH 5 0
BBX 4 6 1 0
BITMAP
E0
10
10
F0
90
F0
ENDCHAR
STARTCHAR 04DC
ENCODING 1244
SWIDTH 900 0
DWIDTH 10 0
BBX 8 8 1 2
BITMAP
81
92
52
54
7C
52
92
81
ENDCHAR
STARTCHAR 04DD
ENCODING 1245
SWIDTH 720 0
DWIDTH 8 0
BBX 7 6 1 2
BITMAP
02
A4
A8
78
A8
84
ENDCHAR
STARTCHAR 04DE
ENCODING 1246
SWIDTH 540 0
DWIDTH 6 0
BBX 5 8 1 2
BITMAP
70
10
10
10
30
08
08
F0
ENDCHAR
STARTCHAR 04DF
ENCODING 1247
SWIDTH 450 0
DWIDTH 5 0
BBX 4 8 1 0
BITMAP
A0
00
E0
20
20
20
10
60
ENDCHAR
STARTCHAR 04E2
ENCODING 1250
SWIDTH 630 0
DWIDTH 7 0
BBX 5 10 1 0
BITMAP
70
00
00
88
98
A8
A8
C8
88
80
ENDCHAR
STARTCHAR 04E3
ENCODING 1251
SWIDTH 540 0
DWIDTH 6 0
BBX 4 8 1 0
BITMAP
70
00
00
B0
B0
D0
90
80
ENDCHAR
STARTCHAR 04E4
ENCODING 1252
SWIDTH 630 0
DWIDTH 7 0
BBX 5 7 1 3
BITMAP
88
98
A8
A8
C8
88
80
ENDCHAR
STARTCHAR 04E5
ENCODING 1253
SWIDTH 540 0
DWIDTH 6 0
BBX 4 5 1 3
BITMAP
B0
B0
D0
90
80
ENDCHAR
STARTCHAR 04E6
ENCODING 1254
SWIDTH 630 0
DWIDTH 7 0
BBX 6 8 1 2
BITMAP
70
88
84
84
84
84
88
F8
ENDCHAR
STARTCHAR 04E7
ENCODING 1255
SWIDTH 540 0
DWIDTH 6 0
BBX 4 6 1 2
BITMAP
60
90
90
90
90
F0
ENDCHAR
STARTCHAR 04E8
ENCODING 1256
SWIDTH 630 0
DWIDTH 7 0
BBX 6 8 1 0
BITMAP
70
88
84
84
FC
84
88
F8
ENDCHAR
STARTCHAR 04E9
ENCODING 1257
SWIDTH 540 0
DWIDTH 6 0
BBX 4 6 1 0
BITMAP
60
90
90
F0
90
F0
ENDCHAR
STARTCHAR 04EE
ENCODING 1262
SWIDTH 540 0
DWIDTH 6 0
BBX 6 10 0 0
BITMAP
38
00
80
84
48
48
30
30
10
20
ENDCHAR
STARTCHAR 04EF
ENCODING 1263
SWIDTH 450 0
DWIDTH 5 0
BBX 5 9 0 -2
BITMAP
70
00
88
90
90
50
60
60
40
ENDCHAR
STARTCHAR 04F0
ENCODING 1264
SWIDTH 540 0
DWIDTH 6 0
BBX 6 10 0 0
BITMAP
28
00
80
84
48
48
30
30
10
20
ENDCHAR
STARTCHAR 04F1
ENCODING 1265
SWIDTH 450 0
DWIDTH 5 0
BBX 5 9 0 -2
BITMAP
50
00
88
90
90
50
60
60
40
ENDCHAR
STARTCHAR 04F2
ENCODING 1266
SWIDTH 540 0
DWIDTH 6 0
BBX 6 8 0 2
BITMAP
80
84
48
48
30
30
10
20
ENDCHAR
STARTCHAR 04F3
ENCODING 1267
SWIDTH 450 0
DWIDTH 5 0
BBX 5 7 0 0
BITMAP
88
90
90
50
60
60
40
ENDCHAR
STARTCHAR 04F4
ENCODING 1268
SWIDTH 540 0
DWIDTH 6 0
BBX 5 8 1 2
BITMAP
08
88
88
88
88
78
08
08
ENDCHAR
STARTCHAR 04F5
ENCODING 1269
SWIDTH 450 0
DWIDTH 5 0
BBX 4 8 1 0
BITMAP
A0
00
10
90
90
B0
50
10
ENDCHAR
STARTCHAR 04F8
ENCODING 1272
SWIDTH 810 0
DWIDTH 9 0
BBX 7 10 1 0
BITMAP
28
00
00
82
82
82
FA
8A
8A
F0
ENDCHAR
STARTCHAR 04F9
ENCODING 1273
SWIDTH 630 0
DWIDTH 7 0
BBX 5 8 1 0
BITMAP
40
00
00
88
88
F8
98
E0
ENDCHAR
STARTCHAR 0E3F
ENCODING 3647
SWIDTH 540 0
DWIDTH 6 0
BBX 5 9 1 0
BITMAP
E0
D8
C8
D0
E8
C8
C8
D0
20
ENDCHAR
STARTCHAR 1E80
ENCODING 7808
SWIDTH 810 0
DWIDTH 9 0
BBX 9 10 0 0
BITMAP
0800
0000
8000
8880
9480
9500
5500
6500
6300
2200
ENDCHAR
STARTCHAR 1E81
ENCODING 7809
SWIDTH 720 0
DWIDTH 8 0
BBX 8 8 0 0
BITMAP
10
00
81
8A
BA
6A
6C
24
ENDCHAR
STARTCHAR 1E82
ENCODING 7810
SWIDTH 810 0
DWIDTH 9 0
BBX 9 8 0 2
BITMAP
8000
8880
9480
9500
5500
6500
6300
2200
ENDCHAR
STARTCHAR 1E83
ENCODING 7811
SWIDTH 720 0
DWIDTH 8 0
BBX 8 8 0 0
BITMAP
08
00
81
8A
BA
6A
6C
24
ENDCHAR
STARTCHAR 1E84
ENCODING 7812
SWIDTH 810 0
DWIDTH 9 0
BBX 9 8 0 2
BITMAP
8000
8880
9480
9500
5500
6500
6300
2200
ENDCHAR
STARTCHAR 1E85
ENCODING 7813
SWIDTH 720 0
DWIDTH 8 0
BBX 8 6 0 2
BITMAP
81
8A
BA
6A
6C
24
ENDCHAR
STARTCHAR 1E9E
ENCODING 7838
SWIDTH 630 0
DWIDTH 7 0
BBX 6 8 1 0
BITMAP
F8
88
90
A0
9C
84
84
18
ENDCHAR
STARTCHAR 1EA0
ENCODING 7840
SWIDTH 540 0
DWIDTH 6 0
BBX 6 7 0 -1
BITMAP
10
30
30
48
48
78
84
ENDCHAR
STARTCHAR 1EA1
ENCODING 7841
SWIDTH 450 0
DWIDTH 5 0
BBX 4 7 1 -1
BITMAP
E0
10
10
F0
90
90
60
ENDCHAR
STARTCHAR 1EA2
ENCODING 7842
SWIDTH 540 0
DWIDTH 6 0
BBX 6 9 0 0
BITMAP
10
00
10
30
30
48
48
78
84
ENDCHAR
STARTCHAR 1EA3
ENCODING 7843
SWIDTH 450 0
DWIDTH 5 0
BBX 4 8 1 0
BITMAP
20
00
E0
10
10
F0
90
F0
ENDCHAR
STARTCHAR 1EA4
ENCODING 7844
SWIDTH 540 0
DWIDTH 6 0
BBX 6 9 0 2
BITMAP
10
00
10
30
30
48
48
78
84
ENDCHAR
STARTCHAR 1EA5
ENCODING 7845
SWIDTH 450 0
DWIDTH 5 0
BBX 4 9 1 1
BITMAP
10
60
00
E0
10
10
F0
90
F0
ENDCHAR
STARTCHAR 1EA6
ENCODING 7846
SWIDTH 540 0
DWIDTH 6 0
BBX 6 10 0 1
BITMAP
40
10
00
10
30
30
48
48
78
84
ENDCHAR
STARTCHAR 1EA7
ENCODING 7847
SWIDTH 450 0
DWIDTH 5 0
BBX 5 8 0 2
BITMAP
30
00
70
08
08
F8
88
F8
ENDCHAR
STARTCHAR 1EA8
ENCODING 7848
SWIDTH 540 0
DWIDTH 6 0
BBX 6 9 0 1
BITMAP
10
00
10
30
30
48
48
78
84
ENDCHAR
STARTCHAR 1EA9
ENCODING 7849
SWIDTH 450 0
DWIDTH 5 0
BBX 4 9 1 0
BITMAP
10
60
00
E0
10
10
F0
90
F0
ENDCHAR
STARTCHAR 1EAA
ENCODING 7850
SWIDTH 540 0
DWIDTH 6 0
BBX 6 10 0 0
BITMAP
10
10
00
10
30
30
48
48
78
84
ENDCHAR
STARTCHAR 1EAB
ENCODING 7851
SWIDTH 450 0
DWIDTH 5 0
BBX 4 9 1 0
BITMAP
40
60
00
E0
10
10
F0
90
F0
ENDCHAR
STARTCHAR 1EAC
ENCODING 7852
SWIDTH 540 0
DWIDTH 6 0
BBX 6 9 0 -1
BITMAP
30
00
10
30
30
48
48
78
84
ENDCHAR
STARTCHAR 1EAD
ENCODING 7853
SWIDTH 450 0
DWIDTH 5 0
BBX 4 9 1 -1
BITMAP
60
00
E0
10
10
F0
90
90
60
ENDCHAR
STARTCHAR 1EAE
ENCODING 7854
SWIDTH 540 0
DWIDTH 6 0
BBX 6 9 0 2
BITMAP
08
10
10
30
30
48
48
78
84
ENDCHAR
STARTCHAR 1EAF
ENCODING 7855
SWIDTH 450 0
DWIDTH 5 0
BBX 4 8 1 2
BITMAP
80
40
E0
10
10
F0
90
F0
ENDCHAR
STARTCHAR 1EB0
ENCODING 7856
SWIDTH 540 0
DWIDTH 6 0
BBX 6 9 0 2
BITMAP
08
10
10
30
30
48
48
78
84
ENDCHAR
STARTCHAR 1EB1
ENCODING 7857
SWIDTH 450 0
DWIDTH 5 0
BBX 4 9 1 1
BITMAP
40
80
40
E0
10
10
F0
90
F0
ENDCHAR
STARTCHAR 1EB2
ENCODING 7858
SWIDTH 540 0
DWIDTH 6 0
BBX 6 10 0 0
BITMAP
10
08
10
10
30
30
48
48
78
84
ENDCHAR
STARTCHAR 1EB3
ENCODING 7859
SWIDTH 450 0
DWIDTH 5 0
BBX 4 9 1 0
BITMAP
20
80
40
E0
10
10
F0
90
F0
ENDCHAR
STARTCHAR 1EB4
ENCODING 7860
SWIDTH 540 0
DWIDTH 6 0
BBX 6 10 0 0
BITMAP
10
08
10
10
30
30
48
48
78
84
ENDCHAR
STARTCHAR 1EB5
ENCODING 7861
SWIDTH 450 0
DWIDTH 5 0
BBX 4 9 1 0
BITMAP
60
80
40
E0
10
10
F0
90
F0
ENDCHAR
STARTCHAR 1EB6
ENCODING 7862
SWIDTH 540 0
DWIDTH 6 0
BBX 6 9 0 -1
BITMAP
08
10
10
30
30
48
48
78
84
ENDCHAR
STARTCHAR 1EB7
ENCODING 7863
SWIDTH 450 0
DWIDTH 5 0
BBX 4 8 1 0
BITMAP
40
E0
10
10
F0
90
90
60
ENDCHAR
STARTCHAR 1EB8
ENCODING 7864
SWIDTH 540 0
DWIDTH 6 0
BBX 3 9 1 -1
BITMAP
E0
80
80
80
E0
80
80
00
E0
ENDCHAR
STARTCHAR 1EB9
ENCODING 7865
SWIDTH 450 0
DWIDTH 5 0
BBX 4 7 1 -1
BITMAP
E0
90
90
E0
80
90
60
ENDCHAR
STARTCHAR 1EBA
ENCODING 7866
SWIDTH 540 0
DWIDTH 6 0
BBX 3 10 1 0
BITMAP
20
00
E0
80
80
80
E0
80
80
E0
ENDCHAR
STARTCHAR 1EBB
ENCODING 7867
SWIDTH 450 0
DWIDTH 5 0
BBX 4 8 1 0
BITMAP
20
00
E0
90
90
E0
80
F0
ENDCHAR
STARTCHAR 1EBC
ENCODING 7868
SWIDTH 540 0
DWIDTH 6 0
BBX 3 10 1 0
BITMAP
40
20
E0
80
80
80
E0
80
80
E0
ENDCHAR
STARTCHAR 1EBD
ENCODING 7869
SWIDTH 450 0
DWIDTH 5 0
BBX 4 8 1 0
BITMAP
D0
20
E0
90
90
E0
80
F0
ENDCHAR
STARTCHAR 1EBE
ENCODING 7870
SWIDTH 540 0
DWIDTH 6 0
BBX 3 10 1 2
BITMAP
20
00
E0
80
80
80
E0
80
80
E0
ENDCHAR
STARTCHAR 1EBF
ENCODING 7871
SWIDTH 450 0
DWIDTH 5 0
BBX 4 8 1 2
BITMAP
60
00
E0
90
90
E0
80
F0
ENDCHAR
STARTCHAR 1EC0
ENCODING 7872
SWIDTH 540 0
DWIDTH 6 0
BBX 3 11 1 1
BITMAP
80
20
00
E0
80
80
80
E0
80
80
E0
ENDCHAR
STARTCHAR 1EC1
ENCODING 7873
SWIDTH 450 0
DWIDTH 5 0
BBX 5 8 0 2
BITMAP
30
00
70
88
88
F0
80
78
ENDCHAR
STARTCHAR 1EC2
ENCODING 7874
SWIDTH 540 0
DWIDTH 6 0
BBX 3 10 1 1
BITMAP
20
00
E0
80
80
80
E0
80
80
E0
ENDCHAR
STARTCHAR 1EC3
ENCODING 7875
SWIDTH 450 0
DWIDTH 5 0
BBX 4 9 1 0
BITMAP
10
60
00
E0
90
90
E0
80
F0
ENDCHAR
STARTCHAR 1EC4
ENCODING 7876
SWIDTH 540 0
DWIDTH 6 0
BBX 3 11 1 0
BITMAP
20
20
00
E0
80
80
80
E0
80
80
E0
ENDCHAR
STARTCHAR 1EC5
ENCODING 7877
SWIDTH 450 0
DWIDTH 5 0
BBX 4 9 1 0
BITMAP
60
60
00
E0
90
90
E0
80
F0
ENDCHAR
STARTCHAR 1EC6
ENCODING 7878
SWIDTH 540 0
DWIDTH 6 0
BBX 3 11 1 -1
BITMAP
60
00
E0
80
80
80
E0
80
80
00
E0
ENDCHAR
STARTCHAR 1EC7
ENCODING 7879
SWIDTH 450 0
DWIDTH 5 0
BBX 4 9 1 -1
BITMAP
60
00
E0
90
90
E0
80
90
60
ENDCHAR
STARTCHAR 1EC8
ENCODING 7880
SWIDTH 360 0
DWIDTH 4 0
BBX 2 9 1 0
BITMAP
40
00
00
80
80
80
80
80
80
ENDCHAR
STARTCHAR 1EC9
ENCODING 7881
SWIDTH 180 0
DWIDTH 2 0
BBX 2 7 0 0
BITMAP
40
00
00
80
80
80
80
ENDCHAR
STARTCHAR 1ECA
ENCODING 7882
SWIDTH 360 0
DWIDTH 4 0
BBX 1 6 1 0
BITMAP
80
80
80
80
80
80
ENDCHAR
STARTCHAR 1ECB
ENCODING 7883
SWIDTH 180 0
DWIDTH 2 0
BBX 1 4 1 2
BITMAP
80
80
80
80
ENDCHAR
STARTCHAR 1ECC
ENCODING 7884
SWIDTH 630 0
DWIDTH 7 0
BBX 6 9 1 -1
BITMAP
70
88
84
84
84
84
88
88
70
ENDCHAR
STARTCHAR 1ECD
ENCODING 7885
SWIDTH 540 0
DWIDTH 6 0
BBX 4 7 1 -1
BITMAP
60
90
90
90
90
90
60
ENDCHAR
STARTCHAR 1ECE
ENCODING 7886
SWIDTH 630 0
DWIDTH 7 0
BBX 6 10 1 0
BITMAP
10
00
70
88
84
84
84
84
88
F8
ENDCHAR
STARTCHAR 1ECF
ENCODING 7887
SWIDTH 540 0
DWIDTH 6 0
BBX 4 8 1 0
BITMAP
20
00
60
90
90
90
90
F0
ENDCHAR
STARTCHAR 1ED0
ENCODING 7888
SWIDTH 630 0
DWIDTH 7 0
BBX 6 11 1 1
BITMAP
08
30
00
70
88
84
84
84
84
88
F8
ENDCHAR
STARTCHAR 1ED1
ENCODING 7889
SWIDTH 540 0
DWIDTH 6 0
BBX 4 8 1 2
BITMAP
60
00
60
90
90
90
90
F0
ENDCHAR
STARTCHAR 1ED2
ENCODING 7890
SWIDTH 630 0
DWIDTH 7 0
BBX 6 10 1 2
BITMAP
30
00
70
88
84
84
84
84
88
F8
ENDCHAR
STARTCHAR 1ED3
ENCODING 7891
SWIDTH 540 0
DWIDTH 6 0
BBX 5 8 0 2
BITMAP
30
00
30
C8
88
88
88
78
ENDCHAR
STARTCHAR 1ED4
ENCODING 7892
SWIDTH 630 0
DWIDTH 7 0
BBX 6 11 1 0
BITMAP
08
30
00
70
88
84
84
84
84
88
F8
ENDCHAR
STARTCHAR 1ED5
ENCODING 7893
SWIDTH 540 0
DWIDTH 6 0
BBX 4 9 1 0
BITMAP
10
60
00
60
90
90
90
90
F0
ENDCHAR
STARTCHAR 1ED6
ENCODING 7894
SWIDTH 630 0
DWIDTH 7 0
BBX 6 11 1 0
BITMAP
20
30
00
70
88
84
84
84
84
88
F8
ENDCHAR
STARTCHAR 1ED7
ENCODING 7895
SWIDTH 540 0
DWIDTH 6 0
BBX 4 9 1 0
BITMAP
60
60
00
60
90
90
90
90
F0
ENDCHAR
STARTCHAR 1ED8
ENCODING 7896
SWIDTH 630 0
DWIDTH 7 0
BBX 6 11 1 -1
BITMAP
30
00
70
88
84
84
84
84
88
88
70
ENDCHAR
STARTCHAR 1ED9
ENCODING 7897
SWIDTH 540 0
DWIDTH 6 0
BBX 4 9 1 -1
BITMAP
60
00
60
90
90
90
90
90
60
ENDCHAR
STARTCHAR 1EDA
ENCODING 7898
SWIDTH 630 0
DWIDTH 7 0
BBX 6 8 1 2
BITMAP
78
88
84
84
84
84
88
F8
ENDCHAR
STARTCHAR 1EDB
ENCODING 7899
SWIDTH 540 0
DWIDTH 6 0
BBX 4 8 1 0
BITMAP
20
00
70
90
90
90
90
F0
ENDCHAR
STARTCHAR 1EDC
ENCODING 7900
SWIDTH 630 0
DWIDTH 7 0
BBX 6 8 1 2
BITMAP
78
88
84
84
84
84
88
F8
ENDCHAR
STARTCHAR 1EDD
ENCODING 7901
SWIDTH 540 0
DWIDTH 6 0
BBX 4 8 1 0
BITMAP
40
00
70
90
90
90
90
F0
ENDCHAR
STARTCHAR 1EDE
ENCODING 7902
SWIDTH 630 0
DWIDTH 7 0
BBX 6 10 1 0
BITMAP
10
00
78
88
84
84
84
84
88
F8
ENDCHAR
STARTCHAR 1EDF
ENCODING 7903
SWIDTH 540 0
DWIDTH 6 0
BBX 4 8 1 0
BITMAP
20
00
70
90
90
90
90
F0
ENDCHAR
STARTCHAR 1EE0
ENCODING 7904
SWIDTH 630 0
DWIDTH 7 0
BBX 6 10 1 0
BITMAP
60
10
78
88
84
84
84
84
88
F8
ENDCHAR
STARTCHAR 1EE1
ENCODING 7905
SWIDTH 540 0
DWIDTH 6 0
BBX 4 8 1 0
BITMAP
D0
20
70
90
90
90
90
F0
ENDCHAR
STARTCHAR 1EE2
ENCODING 7906
SWIDTH 630 0
DWIDTH 7 0
BBX 6 9 1 0
BITMAP
78
88
84
84
84
84
88
88
70
ENDCHAR
STARTCHAR 1EE3
ENCODING 7907
SWIDTH 540 0
DWIDTH 6 0
BBX 4 7 1 0
BITMAP
70
90
90
90
90
90
60
ENDCHAR
STARTCHAR 1EE4
ENCODING 7908
SWIDTH 630 0
DWIDTH 7 0
BBX 5 8 1 0
BITMAP
88
88
88
88
88
88
88
70
ENDCHAR
STARTCHAR 1EE5
ENCODING 7909
SWIDTH 540 0
DWIDTH 6 0
BBX 4 6 1 0
BITMAP
90
90
90
90
90
60
ENDCHAR
STARTCHAR 1EE6
ENCODING 7910
SWIDTH 630 0
DWIDTH 7 0
BBX 5 7 1 3
BITMAP
88
88
88
88
88
88
F8
ENDCHAR
STARTCHAR 1EE7
ENCODING 7911
SWIDTH 540 0
DWIDTH 6 0
BBX 4 8 1 0
BITMAP
20
00
00
90
90
90
90
F0
ENDCHAR
STARTCHAR 1EE8
ENCODING 7912
SWIDTH 630 0
DWIDTH 7 0
BBX 5 8 1 2
BITMAP
08
88
88
88
88
88
88
F8
ENDCHAR
STARTCHAR 1EE9
ENCODING 7913
SWIDTH 540 0
DWIDTH 6 0
BBX 5 8 1 0
BITMAP
20
00
08
90
90
90
90
F0
ENDCHAR
STARTCHAR 1EEA
ENCODING 7914
SWIDTH 630 0
DWIDTH 7 0
BBX 5 8 1 2
BITMAP
08
88
88
88
88
88
88
F8
ENDCHAR
STARTCHAR 1EEB
ENCODING 7915
SWIDTH 540 0
DWIDTH 6 0
BBX 5 8 1 0
BITMAP
40
00
08
90
90
90
90
F0
ENDCHAR
STARTCHAR 1EEC
ENCODING 7916
SWIDTH 630 0
DWIDTH 7 0
BBX 5 8 1 2
BITMAP
08
88
88
88
88
88
88
F8
ENDCHAR
STARTCHAR 1EED
ENCODING 7917
SWIDTH 540 0
DWIDTH 6 0
BBX 5 8 1 0
BITMAP
20
00
08
90
90
90
90
F0
ENDCHAR
STARTCHAR 1EEE
ENCODING 7918
SWIDTH 630 0
DWIDTH 7 0
BBX 5 10 1 0
BITMAP
20
00
08
88
88
88
88
88
88
F8
ENDCHAR
STARTCHAR 1EEF
ENCODING 7919
SWIDTH 540 0
DWIDTH 6 0
BBX 5 8 1 0
BITMAP
40
20
08
90
90
90
90
F0
ENDCHAR
STARTCHAR 1EF0
ENCODING 7920
SWIDTH 630 0
DWIDTH 7 0
BBX 5 9 1 0
BITMAP
08
88
88
88
88
88
88
88
70
ENDCHAR
STARTCHAR 1EF1
ENCODING 7921
SWIDTH 540 0
DWIDTH 6 0
BBX 5 7 1 0
BITMAP
08
90
90
90
90
90
60
ENDCHAR
STARTCHAR 1EF2
ENCODING 7922
SWIDTH 540 0
DWIDTH 6 0
BBX 6 9 0 0
BITMAP
20
00
84
88
50
50
20
20
20
ENDCHAR
STARTCHAR 1EF3
ENCODING 7923
SWIDTH 450 0
DWIDTH 5 0
BBX 5 7 0 0
BITMAP
88
90
90
50
60
60
40
ENDCHAR
STARTCHAR 1EF4
ENCODING 7924
SWIDTH 540 0
DWIDTH 6 0
BBX 6 7 0 -1
BITMAP
84
88
50
50
20
20
20
ENDCHAR
STARTCHAR 1EF5
ENCODING 7925
SWIDTH 450 0
DWIDTH 5 0
BBX 5 7 0 -2
BITMAP
88
90
90
50
60
60
40
ENDCHAR
STARTCHAR 1EF6
ENCODING 7926
SWIDTH 540 0
DWIDTH 6 0
BBX 6 9 0 0
BITMAP
10
00
84
88
50
50
20
20
20
ENDCHAR
STARTCHAR 1EF7
ENCODING 7927
SWIDTH 450 0
DWIDTH 5 0
BBX 5 7 0 0
BITMAP
88
90
90
50
60
60
40
ENDCHAR
STARTCHAR 1EF8
ENCODING 7928
SWIDTH 540 0
DWIDTH 6 0
BBX 6 9 0 0
BITMAP
20
10
84
88
50
50
20
20
20
ENDCHAR
STARTCHAR 1EF9
ENCODING 7929
SWIDTH 450 0
DWIDTH 5 0
BBX 5 9 0 -2
BITMAP
20
00
88
90
90
50
60
60
40
ENDCHAR
STARTCHAR 2013
ENCODING 8211
SWIDTH 540 0
DWIDTH 6 0
BBX 4 1 1 3
BITMAP
F0
ENDCHAR
STARTCHAR 2014
ENCODING 8212
SWIDTH 720 0
DWIDTH 8 0
BBX 6 1 1 3
BITMAP
FC
ENDCHAR
STARTCHAR 2018
ENCODING 8216
SWIDTH 180 0
DWIDTH 2 0
BBX 1 2 1 6
BITMAP
80
80
ENDCHAR
STARTCHAR 2019
ENCODING 8217
SWIDTH 180 0
DWIDTH 2 0
BBX 1 1 1 6
BITMAP
80
ENDCHAR
STARTCHAR 201A
ENCODING 8218
SWIDTH 180 0
DWIDTH 2 0
BBX 1 1 1 -1
BITMAP
80
ENDCHAR
STARTCHAR 201C
ENCODING 8220
SWIDTH 360 0
DWIDTH 4 0
BBX 2 2 1 6
BITMAP
80
C0
ENDCHAR
STARTCHAR 201D
ENCODING 8221
SWIDTH 360 0
DWIDTH 4 0
BBX 1 1 1 6
BITMAP
80
ENDCHAR
STARTCHAR 201E
ENCODING 8222
SWIDTH 360 0
DWIDTH 4 0
BBX 1 1 1 -1
BITMAP
80
ENDCHAR
STARTCHAR 2020
ENCODING 8224
SWIDTH 540 0
DWIDTH 6 0
BBX 5 8 1 -1
BITMAP
40
F8
40
40
40
40
40
40
ENDCHAR
STARTCHAR 2021
ENCODING 8225
SWIDTH 540 0
DWIDTH 6 0
BBX 5 8 1 -1
BITMAP
40
F8
40
40
40
40
F8
40
ENDCHAR
STARTCHAR 2022
ENCODING 8226
SWIDTH 270 0
DWIDTH 3 0
BBX 2 2 1 2
BITMAP
C0
80
ENDCHAR
STARTCHAR 2026
ENCODING 8230
SWIDTH 720 0
DWIDTH 8 0
BBX 6 1 1 0
BITMAP
84
ENDCHAR
STARTCHAR 2030
ENCODING 8240
SWIDTH 1170 0
DWIDTH 13 0
BBX 12 8 1 0
BITMAP
C200
A400
A800
B000
5FF0
2990
4990
4FF0
ENDCHAR
STARTCHAR 2032
ENCODING 8242
SWIDTH 180 0
DWIDTH 2 0
BBX 1 3 1 4
BITMAP
80
80
80
ENDCHAR
STARTCHAR 2033
ENCODING 8243
SWIDTH 360 0
DWIDTH 4 0
BBX 2 3 1 4
BITMAP
80
C0
C0
ENDCHAR
STARTCHAR 2039
ENCODING 8249
SWIDTH 270 0
DWIDTH 3 0
BBX 3 3 0 2
BITMAP
C0
80
60
ENDCHAR
STARTCHAR 203A
ENCODING 8250
SWIDTH 270 0
DWIDTH 3 0
BBX 2 4 1 1
BITMAP
80
40
80
80
ENDCHAR
STARTCHAR 2044
ENCODING 8260
SWIDTH 90 0
DWIDTH 1 0
BBX 5 6 -2 1
BITMAP
08
10
20
20
40
80
ENDCHAR
STARTCHAR 2070
ENCODING 8304
SWIDTH 360 0
DWIDTH 4 0
BBX 3 4 1 4
BITMAP
C0
A0
A0
C0
ENDCHAR
STARTCHAR 2074
ENCODING 8308
SWIDTH 270 0
DWIDTH 3 0
BBX 3 4 0 4
BITMAP
20
60
A0
40
ENDCHAR
STARTCHAR 2075
ENCODING 8309
SWIDTH 270 0
DWIDTH 3 0
BBX 3 4 0 4
BITMAP
C0
80
60
60
ENDCHAR
STARTCHAR 2076
ENCODING 8310
SWIDTH 360 0
DWIDTH 4 0
BBX 2 3 1 5
BITMAP
80
C0
C0
ENDCHAR
STARTCHAR 2077
ENCODING 8311
SWIDTH 270 0
DWIDTH 3 0
BBX 2 3 1 4
BITMAP
40
40
80
ENDCHAR
STARTCHAR 2078
ENCODING 8312
SWIDTH 360 0
DWIDTH 4 0
BBX 3 4 1 4
BITMAP
C0
A0
C0
E0
ENDCHAR
STARTCHAR 2079
ENCODING 8313
SWIDTH 360 0
DWIDTH 4 0
BBX 2 4 1 4
BITMAP
C0
C0
C0
40
ENDCHAR
STARTCHAR 2080
ENCODING 8320
SWIDTH 360 0
DWIDTH 4 0
BBX 3 4 1 0
BITMAP
C0
A0
A0
C0
ENDCHAR
STARTCHAR 2081
ENCODING 8321
SWIDTH 360 0
DWIDTH 4 0
BBX 2 4 1 0
BITMAP
80
80
80
40
ENDCHAR
STARTCHAR 2082
ENCODING 8322
SWIDTH 270 0
DWIDTH 3 0
BBX 2 4 1 0
BITMAP
C0
40
80
80
ENDCHAR
STARTCHAR 2083
ENCODING 8323
SWIDTH 270 0
DWIDTH 3 0
BBX 2 4 1 0
BITMAP
40
40
40
C0
ENDCHAR
STARTCHAR 2084
ENCODING 8324
SWIDTH 270 0
DWIDTH 3 0
BBX 3 4 0 0
BITMAP
60
A0
A0
40
ENDCHAR
STARTCHAR 2085
ENCODING 8325
SWIDTH 270 0
DWIDTH 3 0
BBX 3 4 0 0
BITMAP
C0
80
60
60
ENDCHAR
STARTCHAR 2086
ENCODING 8326
SWIDTH 360 0
DWIDTH 4 0
BBX 2 3 1 1
BITMAP
80
C0
C0
ENDCHAR
STARTCHAR 2087
ENCODING 8327
SWIDTH 270 0
DWIDTH 3 0
BBX 2 3 1 0
BITMAP
40
40
80
ENDCHAR
STARTCHAR 2088
ENCODING 8328
SWIDTH 360 0
DWIDTH 4 0
BBX 3 4 1 0
BITMAP
E0
C0
A0
E0
ENDCHAR
STARTCHAR 2089
ENCODING 8329
SWIDTH 360 0
DWIDTH 4 0
BBX 2 3 1 0
BITMAP
C0
C0
40
ENDCHAR
STARTCHAR 20A1
ENCODING 8353
SWIDTH 540 0
DWIDTH 6 0
BBX 4 9 1 0
BITMAP
70
D0
E0
E0
E0
E0
A0
B0
40
ENDCHAR
STARTCHAR 20A4
ENCODING 8356
SWIDTH 540 0
DWIDTH 6 0
BBX 4 8 1 0
BITMAP
70
80
80
E0
80
E0
80
F0
ENDCHAR
STARTCHAR 20A6
ENCODING 8358
SWIDTH 630 0
DWIDTH 7 0
BBX 6 8 0 0
BITMAP
40
C4
A4
FC
94
EC
8C
04
ENDCHAR
STARTCHAR 20A8
ENCODING 8360
SWIDTH 630 0
DWIDTH 7 0
BBX 7 8 1 0
BITMAP
E0
A0
A0
A8
C8
A4
A2
1C
ENDCHAR
STARTCHAR 20A9
ENCODING 8361
SWIDTH 900 0
DWIDTH 10 0
BBX 9 7 0 1
BITMAP
8C80
9480
7F80
5500
7B80
6300
2100
ENDCHAR
STARTCHAR 20AA
ENCODING 8362
SWIDTH 720 0
DWIDTH 8 0
BBX 6 8 1 0
BITMAP
F0
94
94
D4
D4
D4
C4
5C
ENDCHAR
STARTCHAR 20AB
ENCODING 8363
SWIDTH 540 0
DWIDTH 6 0
BBX 4 7 1 1
BITMAP
10
F0
90
90
90
A0
60
ENDCHAR
STARTCHAR 20AC
ENCODING 8364
SWIDTH 540 0
DWIDTH 6 0
BBX 5 8 1 0
BITMAP
70
80
80
C0
80
C0
88
F0
ENDCHAR
STARTCHAR 20AD
ENCODING 8365
SWIDTH 540 0
DWIDTH 6 0
BBX 6 8 0 0
BITMAP
04
88
90
A0
F8
90
88
04
ENDCHAR
STARTCHAR 20AE
ENCODING 8366
SWIDTH 540 0
DWIDTH 6 0
BBX 4 7 1 0
BITMAP
F0
40
40
60
50
60
40
ENDCHAR
STARTCHAR 20B1
ENCODING 8369
SWIDTH 540 0
DWIDTH 6 0
BBX 7 7 0 0
BITMAP
F8
84
FC
FE
88
F0
80
ENDCHAR
STARTCHAR 20B2
ENCODING 8370
SWIDTH 630 0
DWIDTH 7 0
BBX 5 9 1 0
BITMAP
70
A0
A0
A0
98
A8
C8
D0
20
ENDCHAR
STARTCHAR 20B4
ENCODING 8372
SWIDTH 540 0
DWIDTH 6 0
BBX 4 8 1 0
BITMAP
F0
10
10
E0
40
B0
80
F0
ENDCHAR
STARTCHAR 20B5
ENCODING 8373
SWIDTH 540 0
DWIDTH 6 0
BBX 4 9 1 0
BITMAP
70
A0
A0
A0
A0
C0
C0
D0
20
ENDCHAR
STARTCHAR 20B8
ENCODING 8376
SWIDTH 540 0
DWIDTH 6 0
BBX 4 7 1 0
BITMAP
F0
00
F0
40
40
40
40
ENDCHAR
STARTCHAR 20B9
ENCODING 8377
SWIDTH 540 0
DWIDTH 6 0
BBX 3 7 2 0
BITMAP
E0
20
E0
20
C0
40
20
ENDCHAR
STARTCHAR 20BA
ENCODING 8378
SWIDTH 540 0
DWIDTH 6 0
BBX 6 7 0 1
BITMAP
40
20
C0
60
40
44
78
ENDCHAR
STARTCHAR 20BD
ENCODING 8381
SWIDTH 540 0
DWIDTH 6 0
BBX 6 7 0 0
BITMAP
F8
84
84
84
F8
80
E0
ENDCHAR
STARTCHAR 20BF
ENCODING 8383
SWIDTH 540 0
DWIDTH 6 0
BBX 5 10 1 -1
BITMAP
40
E0
98
88
90
E8
88
88
90
60
ENDCHAR
STARTCHAR 2113
ENCODING 8467
SWIDTH 450 0
DWIDTH 5 0
BBX 3 8 1 0
BITMAP
E0
A0
A0
C0
C0
80
80
E0
ENDCHAR
STARTCHAR 2116
ENCODING 8470
SWIDTH 990 0
DWIDTH 11 0
BBX 10 8 1 0
BITMAP
8180
8A40
CA40
AA80
A900
9880
9800
0800
ENDCHAR
STARTCHAR 2122
ENCODING 8482
SWIDTH 630 0
DWIDTH 7 0
BBX 5 3 1 5
BITMAP
80
98
80
ENDCHAR
STARTCHAR 2126
ENCODING 8486
SWIDTH 630 0
DWIDTH 7 0
BBX 6 8 1 0
BITMAP
70
88
84
84
84
84
88
48
ENDCHAR
STARTCHAR 212E
ENCODING 8494
SWIDTH 630 0
DWIDTH 7 0
BBX 7 8 0 0
BITMAP
38
C4
82
82
FC
80
80
7C
ENDCHAR
STARTCHAR 2150
ENCODING 8528
SWIDTH 810 0
DWIDTH 9 0
BBX 8 7 1 0
BITMAP
82
84
88
08
57
21
22
ENDCHAR
STARTCHAR 2151
ENCODING 8529
SWIDTH 810 0
DWIDTH 9 0
BBX 8 7 1 0
BITMAP
82
84
88
08
57
25
23
ENDCHAR
STARTCHAR 2153
ENCODING 8531
SWIDTH 810 0
DWIDTH 9 0
BBX 8 8 1 0
BITMAP
82
84
88
08
51
21
21
07
ENDCHAR
STARTCHAR 2154
ENCODING 8532
SWIDTH 810 0
DWIDTH 9 0
BBX 8 8 1 0
BITMAP
C0
44
48
90
13
21
43
03
ENDCHAR
STARTCHAR 2155
ENCODING 8533
SWIDTH 810 0
DWIDTH 9 0
BBX 8 8 1 0
BITMAP
82
84
88
08
56
24
23
07
ENDCHAR
STARTCHAR 2156
ENCODING 8534
SWIDTH 810 0
DWIDTH 9 0
BBX 8 8 1 0
BITMAP
C0
44
48
90
16
28
47
03
ENDCHAR
STARTCHAR 2157
ENCODING 8535
SWIDTH 810 0
DWIDTH 9 0
BBX 8 8 1 0
BITMAP
40
44
48
10
DE
28
47
43
ENDCHAR
STARTCHAR 2158
ENCODING 8536
SWIDTH 810 0
DWIDTH 9 0
BBX 9 8 0 0
BITMAP
2000
6200
A400
4800
0B00
1400
2380
0180
ENDCHAR
STARTCHAR 2159
ENCODING 8537
SWIDTH 810 0
DWIDTH 9 0
BBX 8 8 1 0
BITMAP
82
84
88
08
52
24
27
07
ENDCHAR
STARTCHAR 215A
ENCODING 8538
SWIDTH 810 0
DWIDTH 9 0
BBX 9 8 0 0
BITMAP
C000
8400
6400
0800
6800
1600
2780
2700
ENDCHAR
STARTCHAR 215B
ENCODING 8539
SWIDTH 900 0
DWIDTH 10 0
BBX 9 8 1 0
BITMAP
8200
8400
8800
0800
5700
2500
2680
0700
ENDCHAR
STARTCHAR 215C
ENCODING 8540
SWIDTH 810 0
DWIDTH 9 0
BBX 8 8 1 0
BITMAP
40
44
48
10
D7
25
4B
47
ENDCHAR
STARTCHAR 215D
ENCODING 8541
SWIDTH 810 0
DWIDTH 9 0
BBX 9 8 0 0
BITMAP
C000
8400
6400
0800
6B80
1280
2580
2780
ENDCHAR
STARTCHAR 215E
ENCODING 8542
SWIDTH 810 0
DWIDTH 9 0
BBX 8 8 1 0
BITMAP
40
48
88
10
2F
29
4F
0F
ENDCHAR
STARTCHAR 2190
ENCODING 8592
SWIDTH 720 0
DWIDTH 8 0
BBX 7 2 0 3
BITMAP
80
FE
ENDCHAR
STARTCHAR 2191
ENCODING 8593
SWIDTH 720 0
DWIDTH 8 0
BBX 3 7 3 0
BITMAP
40
A0
80
80
80
80
80
ENDCHAR
STARTCHAR 2192
ENCODING 8594
SWIDTH 720 0
DWIDTH 8 0
BBX 7 3 1 3
BITMAP
04
FA
04
ENDCHAR
STARTCHAR 2193
ENCODING 8595
SWIDTH 720 0
DWIDTH 8 0
BBX 4 7 2 1
BITMAP
40
40
40
40
40
D0
60
ENDCHAR
STARTCHAR 2194
ENCODING 8596
SWIDTH 720 0
DWIDTH 8 0
BBX 8 3 0 3
BITMAP
82
FD
02
ENDCHAR
STARTCHAR 2195
ENCODING 8597
SWIDTH 720 0
DWIDTH 8 0
BBX 4 8 2 0
BITMAP
20
50
40
40
40
40
D0
60
ENDCHAR
STARTCHAR 2196
ENCODING 8598
SWIDTH 720 0
DWIDTH 8 0
BBX 5 5 1 1
BITMAP
C0
C0
A0
10
08
ENDCHAR
STARTCHAR 2197
ENCODING 8599
SWIDTH 720 0
DWIDTH 8 0
BBX 6 6 1 1
BITMAP
0C
0C
10
20
40
80
ENDCHAR
STARTCHAR 2198
ENCODING 8600
SWIDTH 720 0
DWIDTH 8 0
BBX 6 6 1 1
BITMAP
80
40
20
10
0C
0C
ENDCHAR
STARTCHAR 2199
ENCODING 8601
SWIDTH 720 0
DWIDTH 8 0
BBX 5 5 1 2
BITMAP
08
10
A0
C0
C0
ENDCHAR
STARTCHAR 21A9
ENCODING 8617
SWIDTH 720 0
DWIDTH 8 0
BBX 8 5 0 1
BITMAP
02
01
01
81
FE
ENDCHAR
STARTCHAR 21AA
ENCODING 8618
SWIDTH 720 0
DWIDTH 8 0
BBX 8 6 0 1
BITMAP
40
80
82
81
7F
02
ENDCHAR
STARTCHAR 21B0
ENCODING 8624
SWIDTH 720 0
DWIDTH 8 0
BBX 5 6 1 1
BITMAP
80
F8
48
08
08
08
ENDCHAR
STARTCHAR 21B1
ENCODING 8625
SWIDTH 720 0
DWIDTH 8 0
BBX 5 7 2 0
BITMAP
10
08
F8
80
80
80
80
ENDCHAR
STARTCHAR 21B2
ENCODING 8626
SWIDTH 720 0
DWIDTH 8 0
BBX 5 7 1 1
BITMAP
08
08
08
08
88
F0
40
ENDCHAR
STARTCHAR 21B3
ENCODING 8627
SWIDTH 720 0
DWIDTH 8 0
BBX 5 7 2 1
BITMAP
80
80
80
90
88
78
10
ENDCHAR
STARTCHAR 21B6
ENCODING 8630
SWIDTH 720 0
DWIDTH 8 0
BBX 9 6 0 1
BITMAP
1F00
2100
2080
4000
C000
6000
ENDCHAR
STARTCHAR 21B7
ENCODING 8631
SWIDTH 720 0
DWIDTH 8 0
BBX 9 6 0 1
BITMAP
7C00
8400
8200
0200
0280
0700
ENDCHAR
STARTCHAR 21BA
ENCODING 8634
SWIDTH 720 0
DWIDTH 8 0
BBX 7 8 1 0
BITMAP
08
18
84
82
82
82
84
78
ENDCHAR
STARTCHAR 21BB
ENCODING 8635
SWIDTH 720 0
DWIDTH 8 0
BBX 7 8 1 0
BITMAP
60
60
80
82
82
82
84
78
ENDCHAR
STARTCHAR 21C4
ENCODING 8644
SWIDTH 720 0
DWIDTH 8 0
BBX 8 6 0 1
BITMAP
02
7D
02
00
80
FE
ENDCHAR
STARTCHAR 21C6
ENCODING 8646
SWIDTH 720 0
DWIDTH 8 0
BBX 8 7 0 1
BITMAP
80
FE
00
02
01
7F
02
ENDCHAR
STARTCHAR 2202
ENCODING 8706
SWIDTH 540 0
DWIDTH 6 0
BBX 5 8 1 0
BITMAP
40
20
70
90
90
88
90
F0
ENDCHAR
STARTCHAR 2206
ENCODING 8710
SWIDTH 540 0
DWIDTH 6 0
BBX 6 8 0 0
BITMAP
10
30
30
48
48
48
84
FC
ENDCHAR
STARTCHAR 220F
ENCODING 8719
SWIDTH 630 0
DWIDTH 7 0
BBX 5 9 1 -2
BITMAP
F8
88
88
88
88
88
88
88
88
ENDCHAR
STARTCHAR 2211
ENCODING 8721
SWIDTH 450 0
DWIDTH 5 0
BBX 4 10 0 -2
BITMAP
F0
80
40
20
20
10
20
40
40
F0
ENDCHAR
STARTCHAR 2212
ENCODING 8722
SWIDTH 540 0
DWIDTH 6 0
BBX 5 1 1 3
BITMAP
F8
ENDCHAR
STARTCHAR 221A
ENCODING 8730
SWIDTH 540 0
DWIDTH 6 0
BBX 6 7 0 1
BITMAP
04
C8
48
48
30
30
10
ENDCHAR
STARTCHAR 221E
ENCODING 8734
SWIDTH 720 0
DWIDTH 8 0
BBX 8 4 0 1
BITMAP
FF
91
89
76
ENDCHAR
STARTCHAR 222B
ENCODING 8747
SWIDTH 270 0
DWIDTH 3 0
BBX 1 9 1 -1
BITMAP
80
80
80
80
80
80
80
80
80
ENDCHAR
STARTCHAR 2248
ENCODING 8776
SWIDTH 540 0
DWIDTH 6 0
BBX 3 3 2 2
BITMAP
80
60
E0
ENDCHAR
STARTCHAR 2260
ENCODING 8800
SWIDTH 540 0
DWIDTH 6 0
BBX 5 4 1 1
BITMAP
10
20
70
F8
ENDCHAR
STARTCHAR 2264
ENCODING 8804
SWIDTH 540 0
DWIDTH 6 0
BBX 4 6 1 1
BITMAP
30
C0
80
60
10
70
ENDCHAR
STARTCHAR 2265
ENCODING 8805
SWIDTH 540 0
DWIDTH 6 0
BBX 4 6 1 1
BITMAP
40
30
10
60
80
70
ENDCHAR
STARTCHAR 25CA
ENCODING 9674
SWIDTH 540 0
DWIDTH 6 0
BBX 5 8 1 0
BITMAP
20
60
90
88
88
90
A0
60
ENDCHAR
STARTCHAR 2713
ENCODING 10003
SWIDTH 900 0
DWIDTH 10 0
BBX 7 8 2 0
BITMAP
02
04
08
08
90
90
60
60
ENDCHAR
STARTCHAR 274C
ENCODING 10060
SWIDTH 900 0
DWIDTH 10 0
BBX 7 7 2 0
BITMAP
80
4C
30
10
68
84
02
ENDCHAR
STARTCHAR 2B0E
ENCODING 11022
SWIDTH 720 0
DWIDTH 8 0
BBX 6 5 1 1
BITMAP
F8
08
08
08
04
ENDCHAR
STARTCHAR 2B0F
ENCODING 11023
SWIDTH 720 0
DWIDTH 8 0
BBX 6 5 1 2
BITMAP
08
0C
08
08
F8
ENDCHAR
STARTCHAR 2B10
ENCODING 11024
SWIDTH 720 0
DWIDTH 8 0
BBX 6 5 1 1
BITMAP
7C
80
80
A0
40
ENDCHAR
STARTCHAR 2B11
ENCODING 11025
SWIDTH 720 0
DWIDTH 8 0
BBX 6 5 1 2
BITMAP
40
A0
80
80
7C
ENDCHAR
STARTCHAR ECE0
ENCODING 60640
SWIDTH 1170 0
DWIDTH 13 0
BBX 11 8 1 0
BITMAP
3060
60C0
8100
8100
81C0
8100
4180
30E0
ENDCHAR
STARTCHAR EFCC
ENCODING 61388
SWIDTH 990 0
DWIDTH 11 0
BBX 10 8 1 0
BITMAP
F700
88C0
9700
9800
F800
9580
9A40
8780
ENDCHAR
STARTCHAR F6D7
ENCODING 63191
SWIDTH 0 0
DWIDTH 0 0
BBX 1 1 0 8
BITMAP
80
ENDCHAR
STARTCHAR F6D8
ENCODING 63192
SWIDTH 0 0
DWIDTH 0 0
BBX 1 1 -1 8
BITMAP
80
ENDCHAR
STARTCHAR FB01
ENCODING 64257
SWIDTH 450 0
DWIDTH 5 0
BBX 5 8 0 0
BITMAP
40
40
F8
48
48
48
48
48
ENDCHAR
STARTCHAR FB02
ENCODING 64258
SWIDTH 450 0
DWIDTH 5 0
BBX 5 8 0 0
BITMAP
48
48
E8
48
48
48
48
48
ENDCHAR
ENDFONT
